<svg version="1.1" id="el_D65VhWZPE" xmlns="http://www.w3.org/2000/svg" xmlns:xlink="http://www.w3.org/1999/xlink" x="0px" y="0px" viewBox="0 0 500 400" style="enable-background:new 0 0 500 400;" xml:space="preserve"><style>@-webkit-keyframes kf_el_aePnh0SSgdG_an_yv79Jhhxe{0%{-webkit-transform: translate(273px, 152px) translate(-273px, -152px) translate(2px, 3px);transform: translate(273px, 152px) translate(-273px, -152px) translate(2px, 3px);}50%{-webkit-transform: translate(273px, 152px) translate(-273px, -152px) translate(2px, 3px);transform: translate(273px, 152px) translate(-273px, -152px) translate(2px, 3px);}100%{-webkit-transform: translate(273px, 152px) translate(-273px, -152px) translate(0px, 0px);transform: translate(273px, 152px) translate(-273px, -152px) translate(0px, 0px);}}@keyframes kf_el_aePnh0SSgdG_an_yv79Jhhxe{0%{-webkit-transform: translate(273px, 152px) translate(-273px, -152px) translate(2px, 3px);transform: translate(273px, 152px) translate(-273px, -152px) translate(2px, 3px);}50%{-webkit-transform: translate(273px, 152px) translate(-273px, -152px) translate(2px, 3px);transform: translate(273px, 152px) translate(-273px, -152px) translate(2px, 3px);}100%{-webkit-transform: translate(273px, 152px) translate(-273px, -152px) translate(0px, 0px);transform: translate(273px, 152px) translate(-273px, -152px) translate(0px, 0px);}}@-webkit-keyframes kf_el_9TDTeCZoZiy_an_lQginWYLi{0%{-webkit-transform: translate(230.8938217163086px, 224.17669677734375px) translate(-230.8938217163086px, -224.17669677734375px) translate(0px, 0px);transform: translate(230.8938217163086px, 224.17669677734375px) translate(-230.8938217163086px, -224.17669677734375px) translate(0px, 0px);}50%{-webkit-transform: translate(230.8938217163086px, 224.17669677734375px) translate(-230.8938217163086px, -224.17669677734375px) translate(2px, 3px);transform: translate(230.8938217163086px, 224.17669677734375px) translate(-230.8938217163086px, -224.17669677734375px) translate(2px, 3px);}100%{-webkit-transform: translate(230.8938217163086px, 224.17669677734375px) translate(-230.8938217163086px, -224.17669677734375px) translate(0px, 0px);transform: translate(230.8938217163086px, 224.17669677734375px) translate(-230.8938217163086px, -224.17669677734375px) translate(0px, 0px);}}@keyframes kf_el_9TDTeCZoZiy_an_lQginWYLi{0%{-webkit-transform: translate(230.8938217163086px, 224.17669677734375px) translate(-230.8938217163086px, -224.17669677734375px) translate(0px, 0px);transform: translate(230.8938217163086px, 224.17669677734375px) translate(-230.8938217163086px, -224.17669677734375px) translate(0px, 0px);}50%{-webkit-transform: translate(230.8938217163086px, 224.17669677734375px) translate(-230.8938217163086px, -224.17669677734375px) translate(2px, 3px);transform: translate(230.8938217163086px, 224.17669677734375px) translate(-230.8938217163086px, -224.17669677734375px) translate(2px, 3px);}100%{-webkit-transform: translate(230.8938217163086px, 224.17669677734375px) translate(-230.8938217163086px, -224.17669677734375px) translate(0px, 0px);transform: translate(230.8938217163086px, 224.17669677734375px) translate(-230.8938217163086px, -224.17669677734375px) translate(0px, 0px);}}@-webkit-keyframes kf_el_aePnh0SSgdG_an_j_63FRNRQ{0%{-webkit-transform: translate(273px, 152px) rotate(0deg) translate(-273px, -152px);transform: translate(273px, 152px) rotate(0deg) translate(-273px, -152px);}50%{-webkit-transform: translate(273px, 152px) rotate(30deg) translate(-273px, -152px);transform: translate(273px, 152px) rotate(30deg) translate(-273px, -152px);}100%{-webkit-transform: translate(273px, 152px) rotate(0deg) translate(-273px, -152px);transform: translate(273px, 152px) rotate(0deg) translate(-273px, -152px);}}@keyframes kf_el_aePnh0SSgdG_an_j_63FRNRQ{0%{-webkit-transform: translate(273px, 152px) rotate(0deg) translate(-273px, -152px);transform: translate(273px, 152px) rotate(0deg) translate(-273px, -152px);}50%{-webkit-transform: translate(273px, 152px) rotate(30deg) translate(-273px, -152px);transform: translate(273px, 152px) rotate(30deg) translate(-273px, -152px);}100%{-webkit-transform: translate(273px, 152px) rotate(0deg) translate(-273px, -152px);transform: translate(273px, 152px) rotate(0deg) translate(-273px, -152px);}}@-webkit-keyframes kf_el_sl4JfTTbS82_an_bXkiQUeLC{0%{-webkit-transform: translate(266.50025939941406px, 224.3407211303711px) translate(-266.50025939941406px, -224.3407211303711px) translate(0px, 0px);transform: translate(266.50025939941406px, 224.3407211303711px) translate(-266.50025939941406px, -224.3407211303711px) translate(0px, 0px);}50%{-webkit-transform: translate(266.50025939941406px, 224.3407211303711px) translate(-266.50025939941406px, -224.3407211303711px) translate(2px, 3px);transform: translate(266.50025939941406px, 224.3407211303711px) translate(-266.50025939941406px, -224.3407211303711px) translate(2px, 3px);}100%{-webkit-transform: translate(266.50025939941406px, 224.3407211303711px) translate(-266.50025939941406px, -224.3407211303711px) translate(0px, 0px);transform: translate(266.50025939941406px, 224.3407211303711px) translate(-266.50025939941406px, -224.3407211303711px) translate(0px, 0px);}}@keyframes kf_el_sl4JfTTbS82_an_bXkiQUeLC{0%{-webkit-transform: translate(266.50025939941406px, 224.3407211303711px) translate(-266.50025939941406px, -224.3407211303711px) translate(0px, 0px);transform: translate(266.50025939941406px, 224.3407211303711px) translate(-266.50025939941406px, -224.3407211303711px) translate(0px, 0px);}50%{-webkit-transform: translate(266.50025939941406px, 224.3407211303711px) translate(-266.50025939941406px, -224.3407211303711px) translate(2px, 3px);transform: translate(266.50025939941406px, 224.3407211303711px) translate(-266.50025939941406px, -224.3407211303711px) translate(2px, 3px);}100%{-webkit-transform: translate(266.50025939941406px, 224.3407211303711px) translate(-266.50025939941406px, -224.3407211303711px) translate(0px, 0px);transform: translate(266.50025939941406px, 224.3407211303711px) translate(-266.50025939941406px, -224.3407211303711px) translate(0px, 0px);}}@-webkit-keyframes kf_el_sl4JfTTbS82_an_jyxI5-wmt{0%{-webkit-transform: translate(266.50025939941406px, 224.3407211303711px) rotate(0deg) translate(-266.50025939941406px, -224.3407211303711px);transform: translate(266.50025939941406px, 224.3407211303711px) rotate(0deg) translate(-266.50025939941406px, -224.3407211303711px);}50%{-webkit-transform: translate(266.50025939941406px, 224.3407211303711px) rotate(5deg) translate(-266.50025939941406px, -224.3407211303711px);transform: translate(266.50025939941406px, 224.3407211303711px) rotate(5deg) translate(-266.50025939941406px, -224.3407211303711px);}100%{-webkit-transform: translate(266.50025939941406px, 224.3407211303711px) rotate(0deg) translate(-266.50025939941406px, -224.3407211303711px);transform: translate(266.50025939941406px, 224.3407211303711px) rotate(0deg) translate(-266.50025939941406px, -224.3407211303711px);}}@keyframes kf_el_sl4JfTTbS82_an_jyxI5-wmt{0%{-webkit-transform: translate(266.50025939941406px, 224.3407211303711px) rotate(0deg) translate(-266.50025939941406px, -224.3407211303711px);transform: translate(266.50025939941406px, 224.3407211303711px) rotate(0deg) translate(-266.50025939941406px, -224.3407211303711px);}50%{-webkit-transform: translate(266.50025939941406px, 224.3407211303711px) rotate(5deg) translate(-266.50025939941406px, -224.3407211303711px);transform: translate(266.50025939941406px, 224.3407211303711px) rotate(5deg) translate(-266.50025939941406px, -224.3407211303711px);}100%{-webkit-transform: translate(266.50025939941406px, 224.3407211303711px) rotate(0deg) translate(-266.50025939941406px, -224.3407211303711px);transform: translate(266.50025939941406px, 224.3407211303711px) rotate(0deg) translate(-266.50025939941406px, -224.3407211303711px);}}#el_D65VhWZPE *{-webkit-animation-duration: 3s;animation-duration: 3s;-webkit-animation-iteration-count: 1;animation-iteration-count: 1;-webkit-animation-timing-function: cubic-bezier(0, 0, 1, 1);animation-timing-function: cubic-bezier(0, 0, 1, 1);}#el_pnlx1aIwcv{fill: #2D2A44;}#el_2UlAYwQc3y{fill: #2D2A44;}#el_WmkKvMc5z9{fill: #2D2A44;}#el_M4pasHbq9F{fill: #2D2A44;}#el_iEaivvfSFs{fill: #2D2A44;}#el_izDY5_grdF{fill: #2D2A44;}#el_vcasC2smda{fill: #2D2A44;}#el_8LpcqQoneH{opacity: 0.2;fill: #EEE8E0;}#el_pG_CJZOnmt{fill: #2D2A44;}#el_PNdVeRosQi{fill: #F6FEFF;}#el_2sS7VoNY8X{fill: #2D2A44;}#el_TbhSW3fmG8{opacity: 0.4;fill: #FAFCFB;}#el_Os8G_s6ZrX{opacity: 0.4;fill: #FAFCFB;}#el_8dULGYDzcn{opacity: 0.4;fill: #FAFCFB;}#el_EtfLwW7HL8M{opacity: 0.4;fill: #FAFCFB;}#el_SCivXOvsMo-{opacity: 0.4;fill: #FAFCFB;}#el_qpl7u-VvLxa{opacity: 0.3;fill: #B9B8B3;}#el_jkN7VdLhC2m{opacity: 0.3;fill: #B9B8B3;}#el_2BXe9AV5pjo{fill: #2D2A44;}#el_gLJB0UWge0Z{fill: #2D2A44;}#el_RlIeo3RB5Mh{fill: #F6FEFF;}#el_bpSdjJQz_mJ{opacity: 0.3;fill: #B9B8B3;}#el_JT5l-xBq-kx{opacity: 0.3;fill: #B9B8B3;}#el_zSmBnJpAHx8{fill: #2D2A44;}#el_wAbOLMBpoPl{fill: #2D2A44;}#el_fzFTFwpmfUS{opacity: 0.3;fill: #B9B8B3;}#el_-qE3bPuQNd7{opacity: 0.3;fill: #B9B8B3;}#el_PFSaU_dvRGk{fill: #F6FEFF;}#el_lzBlZZYAKzs{fill: #2D2A44;}#el_mua1K6snQ9A{fill: #2D2A44;}#el_eCk4Eaa1gBt{fill: #F6FEFF;}#el_Z0wRNR2k5N1{opacity: 0.3;fill: #B9B8B3;}#el_aLojF9ARLeT{fill: #F6FEFF;}#el_3VDCwTKzlYv{fill: #2D2A44;}#el_cG2FZ1_IJEy{opacity: 0.3;fill: #B9B8B3;}#el_WY70-yk-JJy{fill: #FAFCFB;}#el_m_ZoTW4FV2c{fill: #FAFCFB;}#el_PEhGzWROc5A{fill: #FAFCFB;}#el_2v8spfDKAn1{fill: #FAFCFB;}#el_7plSbbiqIUS{fill: #FAFCFB;}#el_1f_DBHhy-04{fill: #FAFCFB;}#el_bV-gnNZcowV{fill: #FAFCFB;}#el_9Lkda2ZhV4m{fill: #2D2A44;}#el_fzEVkLgaQtZ{fill: #2D2A44;}#el_Y9L3kbtaQci{fill: #2D2A44;}#el_oHh3x3vI8rj{fill: #2D2A44;}#el__8dFsMC3hT8{fill: #2D2A44;}#el_hJjHgI7fJkj{fill: #2D2A44;}#el_aBIGYNu-2k_{fill: #2D2A44;}#el_Z2RvARqFjqC{fill: #2D2A44;}#el_tNEjOYEfbS1{fill: #2D2A44;}#el_Ocz401yDSX7{fill: #2D2A44;}#el_YCkrPFZQB7N{fill: #2D2A44;}#el_LPXySwqC1G5{fill: #2D2A44;}#el_COQdswSY_7A{fill: #2D2A44;}#el_IbaBtoWaI9Q{fill: #2D2A44;}#el_9_K8UpOxd7y{fill: #2D2A44;}#el_C5UaDPQS3Zv{fill: #2D2A44;}#el_J71BMv_i5Dr{fill: #2D2A44;}#el_20kHhNsx1iS{fill: #2D2A44;}#el__JB9OK20Fqf{fill: #2D2A44;}#el_RDPWISw-j-v{fill: #2D2A44;}#el_v_mrk6otHpm{fill: #FAFCFB;}#el_12KJHI7v1-b{fill: #FAFCFB;}#el_0yA3gCGVPCY{fill: #FAFCFB;}#el_YGbdM6FlC3q{fill: #FAFCFB;}#el_iW51g_AZOiN{fill: #FAFCFB;}#el_hz3SAmUPn33{fill: #FAFCFB;}#el_1srBk-PZUUh{fill: #FAFCFB;}#el_SoBWJqwjzIB{fill: #FAFCFB;}#el_35KwAzLSCBf{fill: #FAFCFB;}#el_sl4JfTTbS82{fill: #722127;}#el_ItYqk7IjEW6{fill: rgba(250, 252, 251, 0);}#el_Wp8v96iZUt3{fill: none;stroke: #E3424E;stroke-width: 3;stroke-miterlimit: 10;}#el_SRIKSM6vRaF{opacity: 0.4;fill: #F6FEFF;}#el_Va5UKUbAnBD{opacity: 0.4;fill: #F6FEFF;}#el_-JXD1ArIJX7{fill: #2D2A44;}#el_tEQ5LhcFak9{fill: #F6FEFF;}#el_bQl2boH6dXY{opacity: 0.3;fill: #B9B8B3;}#el_tEQ5LhcFak9_an_0AAvH0ovA{-webkit-transform: translate(188.3837127685547px, 199.316650390625px) translate(-188.3837127685547px, -199.316650390625px) translate(0px, 0px);transform: translate(188.3837127685547px, 199.316650390625px) translate(-188.3837127685547px, -199.316650390625px) translate(0px, 0px);}#el_tEQ5LhcFak9_an_VLc9CIAB8{-webkit-transform: translate(188.3837127685547px, 199.316650390625px) rotate(0deg) translate(-188.3837127685547px, -199.316650390625px);transform: translate(188.3837127685547px, 199.316650390625px) rotate(0deg) translate(-188.3837127685547px, -199.316650390625px);}#el_9TDTeCZoZiy_an_lQginWYLi{-webkit-transform: translate(230.8938217163086px, 224.17669677734375px) translate(-230.8938217163086px, -224.17669677734375px) translate(0px, 0px);transform: translate(230.8938217163086px, 224.17669677734375px) translate(-230.8938217163086px, -224.17669677734375px) translate(0px, 0px);-webkit-animation-fill-mode: backwards;animation-fill-mode: backwards;-webkit-animation-name: kf_el_9TDTeCZoZiy_an_lQginWYLi;animation-name: kf_el_9TDTeCZoZiy_an_lQginWYLi;-webkit-animation-timing-function: cubic-bezier(0.42, 0, 1, 1);animation-timing-function: cubic-bezier(0.42, 0, 1, 1);}#el_aePnh0SSgdG_an_O8bAyF4AV{-webkit-transform: translate(273px, 152px) scale(1, 1) translate(-273px, -152px);transform: translate(273px, 152px) scale(1, 1) translate(-273px, -152px);}#el_aePnh0SSgdG_an_j_63FRNRQ{-webkit-transform: translate(273px, 152px) rotate(0deg) translate(-273px, -152px);transform: translate(273px, 152px) rotate(0deg) translate(-273px, -152px);-webkit-animation-fill-mode: backwards;animation-fill-mode: backwards;-webkit-animation-name: kf_el_aePnh0SSgdG_an_j_63FRNRQ;animation-name: kf_el_aePnh0SSgdG_an_j_63FRNRQ;-webkit-animation-timing-function: cubic-bezier(0, 0, 1, 1);animation-timing-function: cubic-bezier(0, 0, 1, 1);}#el_sl4JfTTbS82_an_jyxI5-wmt{-webkit-animation-fill-mode: backwards;animation-fill-mode: backwards;-webkit-transform: translate(266.50025939941406px, 224.3407211303711px) rotate(0deg) translate(-266.50025939941406px, -224.3407211303711px);transform: translate(266.50025939941406px, 224.3407211303711px) rotate(0deg) translate(-266.50025939941406px, -224.3407211303711px);-webkit-animation-name: kf_el_sl4JfTTbS82_an_jyxI5-wmt;animation-name: kf_el_sl4JfTTbS82_an_jyxI5-wmt;-webkit-animation-timing-function: cubic-bezier(0, 0, 1, 1);animation-timing-function: cubic-bezier(0, 0, 1, 1);}#el_sl4JfTTbS82_an_bXkiQUeLC{-webkit-animation-fill-mode: backwards;animation-fill-mode: backwards;-webkit-transform: translate(266.50025939941406px, 224.3407211303711px) translate(-266.50025939941406px, -224.3407211303711px) translate(0px, 0px);transform: translate(266.50025939941406px, 224.3407211303711px) translate(-266.50025939941406px, -224.3407211303711px) translate(0px, 0px);-webkit-animation-name: kf_el_sl4JfTTbS82_an_bXkiQUeLC;animation-name: kf_el_sl4JfTTbS82_an_bXkiQUeLC;-webkit-animation-timing-function: cubic-bezier(0, 0, 1, 1);animation-timing-function: cubic-bezier(0, 0, 1, 1);}#el_aePnh0SSgdG_an_yv79Jhhxe{-webkit-animation-fill-mode: backwards;animation-fill-mode: backwards;-webkit-transform: translate(273px, 152px) translate(-273px, -152px) translate(2px, 3px);transform: translate(273px, 152px) translate(-273px, -152px) translate(2px, 3px);-webkit-animation-name: kf_el_aePnh0SSgdG_an_yv79Jhhxe;animation-name: kf_el_aePnh0SSgdG_an_yv79Jhhxe;-webkit-animation-timing-function: cubic-bezier(0, 0, 1, 1);animation-timing-function: cubic-bezier(0, 0, 1, 1);}</style>

<path d="M343.2,339.1c0,4.6-44.1,8.3-98.5,8.3c-54.4,0-98.5-3.7-98.5-8.3c0-4.6,44.1-8.3,98.5-8.3&#10;&#9;C299.1,330.7,343.2,334.5,343.2,339.1z" id="el_pnlx1aIwcv"/>
<circle cx="199.3" cy="209.7" r="17" id="el_2UlAYwQc3y"/>
<g id="el_ZRi9beM9Rn">
	<path d="M353.4,134.8c-1.5,15.4-15.2,26.7-30.7,25.2c-15.4-1.5-26.7-15.2-25.2-30.7c1.5-15.4,15.2-26.7,30.7-25.2&#10;&#9;&#9;C343.6,105.6,354.9,119.3,353.4,134.8z" id="el_WmkKvMc5z9"/>
	<path d="M213.5,121.2c-1.5,15.4-15.2,26.7-30.7,25.2c-15.4-1.5-26.7-15.2-25.2-30.7c1.5-15.4,15.2-26.7,30.7-25.2&#10;&#9;&#9;C203.7,92,215,105.7,213.5,121.2z" id="el_M4pasHbq9F"/>
	<path d="M165.7,115.2c1.2-12.1,10.1-21.8,21.3-24.8c-14.9-0.7-27.9,10.3-29.3,25.3c-1.5,15.4,9.8,29.2,25.2,30.7&#10;&#9;&#9;c2.4,0.2,4.7,0.1,7-0.2C175.1,143.9,164.2,130.2,165.7,115.2z" id="el_iEaivvfSFs"/>
	<path d="M346,132.8c1.2-12.1-5.7-23.3-16.1-28.4c14.7,2.1,25.4,15.5,23.9,30.5c-1.5,15.4-15.2,26.7-30.7,25.2&#10;&#9;&#9;c-2.4-0.2-4.6-0.8-6.8-1.6C331.2,159.1,344.5,147.7,346,132.8z" id="el_izDY5_grdF"/>
	<path d="M326,95.8c-1.8,18.5-33,28-70,24.4c-37-3.6-65.8-18.6-64-37.1c1.8-18.5,33.5-33.5,70.5-29.9&#10;&#9;&#9;C299.5,56.7,327.8,77.3,326,95.8z" id="el_vcasC2smda"/>
	<path d="M257.4,54.4c22.7,0.7,44.3,10,61.8,24.3c0.1,0,0.1,0.1,0.2,0.1c0.3,0.2,0.5,0.4,0.8,0.5&#10;&#9;&#9;c-10-12.7-31.6-23.6-57.6-26.1c-33.9-3.3-63.3,9-69.4,25.4C209.6,62,232.3,53.6,257.4,54.4z" id="el_8LpcqQoneH"/>
	<path d="M294.3,168.5c-1.7,17.4-22.1,29.7-45.5,27.4c-23.4-2.3-41.1-18.2-39.4-35.6c1.7-17.4,22.1-29.7,45.5-27.4&#10;&#9;&#9;C278.4,135.2,296,151.1,294.3,168.5z" id="el_pG_CJZOnmt"/>
	<path d="M262,60.1c-57.9-5.6-86,36.4-87.8,55c-4.8,49.9,52.2,58.5,76.6,60.9c24.3,2.4,82.3,2.4,86.9-45&#10;&#9;&#9;C339.4,112.4,319.9,65.7,262,60.1z" id="el_PNdVeRosQi"/>
	<path d="M198,146.6c0,0-3.3-32,1.7-56c0,0,64.2-18.3,119.7,13.7c0,0-0.3,38.4-11.3,53.4&#10;&#9;&#9;C308.1,157.8,246.5,169.6,198,146.6z" id="el_2sS7VoNY8X"/>
	<path d="M208.3,97.2c0,0,53.6-16.8,103,10.2l-1.3,2.6l-101.1-9.8L208.3,97.2z" id="el_TbhSW3fmG8"/>
	<path d="M204.3,138.1c0,0,49.4,26.8,103.1,9.8l-0.8-2.8l-101.1-9.8L204.3,138.1z" id="el_Os8G_s6ZrX"/>
	<path d="M212.8,125.1l28.4-14.2C241.2,110.9,232,122.4,212.8,125.1z" id="el_8dULGYDzcn"/>
	<path d="M240.5,127.8l28.4-14.2C268.9,113.6,259.6,125.1,240.5,127.8z" id="el_EtfLwW7HL8M"/>
	<path d="M268.1,130.5l28.4-14.2C296.5,116.3,287.3,127.8,268.1,130.5z" id="el_SCivXOvsMo-"/>
	<path d="M211.2,78.4c0,0,42.8-21.4,91.5,3.6C302.7,82,255.9,45.7,211.2,78.4z" id="el_qpl7u-VvLxa"/>
	<path d="M203.7,156.3c0,0,49.7,21.4,102.3,6.3C305.9,162.5,246.5,188.3,203.7,156.3z" id="el_jkN7VdLhC2m"/>
</g>
<g id="el_Ip-aG2hKQ0j">
	<path d="M291.5,259.7c0,0,8.2,2.5,7.5,7c-0.6,4.5-26.3,32.3-29,29.1c-2.8-3.2-12.3-12.5-12.3-12.5L291.5,259.7z" id="el_2BXe9AV5pjo"/>
	<path d="M282.9,338.1c0,0,3.9-18.9,18.9-18.9c15,0,19.3,18.9,19.3,18.9H282.9z" id="el_gLJB0UWge0Z"/>
	<path d="M288.8,275.7c4.8-2.1,8.4-19.4,16.5-9.2c5.6,7,11.3,37,6.1,55.7c0,0-16.2-10.2-24.5,7c0,0-20-18.4-16.8-33.8&#10;&#9;&#9;C273.2,280.2,283,278.3,288.8,275.7z" id="el_RlIeo3RB5Mh"/>
	<path d="M284,283.2c0,0-14.3,15.5,2.4,33.7C286.4,317,261.6,299.8,284,283.2z" id="el_bpSdjJQz_mJ"/>
	<path d="M306.6,317c0,0,0.8-28.5-9.7-41.5c0,0,1-7.4,2.9-6.5C301.7,269.9,316.1,303.7,306.6,317z" id="el_JT5l-xBq-kx"/>
</g>
<g id="el_doumWBimS0c">
	<path d="M206.3,259.7c0,0-8.2,2.5-7.5,7c0.6,4.5,26.3,32.3,29,29.1c2.8-3.2,12.3-12.5,12.3-12.5L206.3,259.7z" id="el_zSmBnJpAHx8"/>
	<path d="M215,338.1c0,0-3.9-18.9-18.9-18.9c-15,0-19.3,18.9-19.3,18.9H215z" id="el_wAbOLMBpoPl"/>
	<path d="M215,283.2c0,0,14.3,15.5-2.4,33.7C212.5,317,237.3,299.8,215,283.2z" id="el_fzFTFwpmfUS"/>
	<path d="M192.2,314.3c0,0-4-25.9,6.5-38.8c0,0-1-7.4-2.9-6.5C194,269.9,182.8,301.1,192.2,314.3z" id="el_-qE3bPuQNd7"/>
</g>
<path d="M209.1,275.7c-4.8-2.1-8.4-19.4-16.5-9.2c-5.6,7-11.3,37-6.1,55.7c0,0,16.2-10.2,24.5,7c0,0,20-18.4,16.8-33.8&#10;&#9;C224.6,280.2,214.9,278.3,209.1,275.7z" id="el_PFSaU_dvRGk"/>
<g id="el_Pr2XlEz2EGf">
	<path d="M325.5,277c0,0,1.9,14.9-3.2,19.4c-5.2,4.5,23.4,4.7,12.3-19.4H325.5z" id="el_lzBlZZYAKzs"/>
	<path d="M293.7,230.5l16.1-19.4c0,0,2.4-16.8-16.1-18.1V230.5z" id="el_mua1K6snQ9A"/>
	<path d="M303.2,211.7c14.7-9.7,35.9,22,35.2,65.9c0,0-14.2,14.9-21.3-3.9C310,255,288.9,221.2,303.2,211.7z" id="el_eCk4Eaa1gBt"/>
	<path d="M335.4,266.5c0-14.7-10.7-44.8-19.5-48.8l0,0c0,0,16,44,17.6,56.1C333.5,273.8,335.4,271.3,335.4,266.5z" id="el_Z0wRNR2k5N1"/>
</g>
<g id="el_c0urNPGhlcC">
	<path d="M248.4,182.7c-13.1,0-30.5-5.2-45.4,10.3v68.5c0,0,28.1,15.5,28.1,31c0,0,2.8,7.1,17.6,7.1&#10;&#9;&#9;c11,0,17.1-7.1,17.1-7.1c0-15.5,27.8-31,27.8-31V193C278.9,177.5,260,182.7,248.4,182.7z" id="el_aLojF9ARLeT"/>
	<rect x="219.7" y="199.3" width="55.5" height="61.1" id="el_3VDCwTKzlYv"/>
	<path d="M232.2,283.7c0,0,15.3,15.1,33.7-0.5C265.9,283.2,248.8,306,232.2,283.7z" id="el_cG2FZ1_IJEy"/>
	<path d="M235.4,207.7c0,2.2-1.8,4-4,4s-4-1.8-4-4s1.8-4,4-4S235.4,205.5,235.4,207.7z" id="el_WY70-yk-JJy"/>
	<path d="M252.1,207.7c0,2.2-1.8,4-4,4c-2.2,0-4-1.8-4-4s1.8-4,4-4C250.3,203.7,252.1,205.5,252.1,207.7z" id="el_m_ZoTW4FV2c"/>
	<path d="M268.8,207.7c0,2.2-1.8,4-4,4c-2.2,0-4-1.8-4-4s1.8-4,4-4C267,203.7,268.8,205.5,268.8,207.7z" id="el_PEhGzWROc5A"/>
	<path d="M235.4,250.3c0,2.2-1.8,4-4,4s-4-1.8-4-4s1.8-4,4-4S235.4,248,235.4,250.3z" id="el_2v8spfDKAn1"/>
	<path d="M252.1,250.3c0,2.2-1.8,4-4,4c-2.2,0-4-1.8-4-4s1.8-4,4-4C250.3,246.2,252.1,248,252.1,250.3z" id="el_7plSbbiqIUS"/>
	<path d="M268.8,250.3c0,2.2-1.8,4-4,4c-2.2,0-4-1.8-4-4s1.8-4,4-4C267,246.2,268.8,248,268.8,250.3z" id="el_1f_DBHhy-04"/>
	<rect x="228.9" y="215.9" width="38.9" height="24.1" id="el_bV-gnNZcowV"/>
	<g id="el_wpF_pd_Z2F5">
		<circle cx="222" cy="195" r="1.2" id="el_9Lkda2ZhV4m"/>
		<circle cx="227.6" cy="195" r="1.2" id="el_fzEVkLgaQtZ"/>
		<circle cx="233.1" cy="195" r="1.2" id="el_Y9L3kbtaQci"/>
		<path d="M239.9,195c0,0.7-0.5,1.2-1.2,1.2c-0.7,0-1.2-0.5-1.2-1.2c0-0.7,0.5-1.2,1.2-1.2&#10;&#9;&#9;&#9;C239.4,193.8,239.9,194.3,239.9,195z" id="el_oHh3x3vI8rj"/>
		<path d="M245.5,195c0,0.7-0.5,1.2-1.2,1.2c-0.7,0-1.2-0.5-1.2-1.2c0-0.7,0.5-1.2,1.2-1.2&#10;&#9;&#9;&#9;C244.9,193.8,245.5,194.3,245.5,195z" id="el__8dFsMC3hT8"/>
		<path d="M251,195c0,0.7-0.5,1.2-1.2,1.2c-0.7,0-1.2-0.5-1.2-1.2c0-0.7,0.5-1.2,1.2-1.2C250.5,193.8,251,194.3,251,195&#10;&#9;&#9;&#9;z" id="el_hJjHgI7fJkj"/>
		<path d="M256.6,195c0,0.7-0.5,1.2-1.2,1.2c-0.7,0-1.2-0.5-1.2-1.2c0-0.7,0.5-1.2,1.2-1.2&#10;&#9;&#9;&#9;C256,193.8,256.6,194.3,256.6,195z" id="el_aBIGYNu-2k_"/>
		<path d="M262.1,195c0,0.7-0.5,1.2-1.2,1.2c-0.7,0-1.2-0.5-1.2-1.2c0-0.7,0.5-1.2,1.2-1.2&#10;&#9;&#9;&#9;C261.6,193.8,262.1,194.3,262.1,195z" id="el_Z2RvARqFjqC"/>
		<path d="M267.7,195c0,0.7-0.5,1.2-1.2,1.2c-0.7,0-1.2-0.5-1.2-1.2c0-0.7,0.5-1.2,1.2-1.2&#10;&#9;&#9;&#9;C267.1,193.8,267.7,194.3,267.7,195z" id="el_tNEjOYEfbS1"/>
		<path d="M273.3,195c0,0.7-0.5,1.2-1.2,1.2c-0.7,0-1.2-0.5-1.2-1.2c0-0.7,0.5-1.2,1.2-1.2&#10;&#9;&#9;&#9;C272.7,193.8,273.3,194.3,273.3,195z" id="el_Ocz401yDSX7"/>
	</g>
	<g id="el_GmRoFsMIwir">
		<circle cx="222" cy="265.4" r="1.2" id="el_YCkrPFZQB7N"/>
		<circle cx="227.6" cy="265.4" r="1.2" id="el_LPXySwqC1G5"/>
		<circle cx="233.1" cy="265.4" r="1.2" id="el_COQdswSY_7A"/>
		<path d="M239.9,265.4c0,0.7-0.5,1.2-1.2,1.2c-0.7,0-1.2-0.5-1.2-1.2c0-0.7,0.5-1.2,1.2-1.2&#10;&#9;&#9;&#9;C239.4,264.1,239.9,264.7,239.9,265.4z" id="el_IbaBtoWaI9Q"/>
		<path d="M245.5,265.4c0,0.7-0.5,1.2-1.2,1.2c-0.7,0-1.2-0.5-1.2-1.2c0-0.7,0.5-1.2,1.2-1.2&#10;&#9;&#9;&#9;C244.9,264.1,245.5,264.7,245.5,265.4z" id="el_9_K8UpOxd7y"/>
		<path d="M251,265.4c0,0.7-0.5,1.2-1.2,1.2c-0.7,0-1.2-0.5-1.2-1.2c0-0.7,0.5-1.2,1.2-1.2&#10;&#9;&#9;&#9;C250.5,264.1,251,264.7,251,265.4z" id="el_C5UaDPQS3Zv"/>
		<path d="M256.6,265.4c0,0.7-0.5,1.2-1.2,1.2c-0.7,0-1.2-0.5-1.2-1.2c0-0.7,0.5-1.2,1.2-1.2&#10;&#9;&#9;&#9;C256,264.1,256.6,264.7,256.6,265.4z" id="el_J71BMv_i5Dr"/>
		<path d="M262.1,265.4c0,0.7-0.5,1.2-1.2,1.2c-0.7,0-1.2-0.5-1.2-1.2c0-0.7,0.5-1.2,1.2-1.2&#10;&#9;&#9;&#9;C261.6,264.1,262.1,264.7,262.1,265.4z" id="el_20kHhNsx1iS"/>
		<path d="M267.7,265.4c0,0.7-0.5,1.2-1.2,1.2c-0.7,0-1.2-0.5-1.2-1.2c0-0.7,0.5-1.2,1.2-1.2&#10;&#9;&#9;&#9;C267.1,264.1,267.7,264.7,267.7,265.4z" id="el__JB9OK20Fqf"/>
		<path d="M273.3,265.4c0,0.7-0.5,1.2-1.2,1.2c-0.7,0-1.2-0.5-1.2-1.2c0-0.7,0.5-1.2,1.2-1.2&#10;&#9;&#9;&#9;C272.7,264.1,273.3,264.7,273.3,265.4z" id="el_RDPWISw-j-v"/>
	</g>
</g>
<g id="el_74V2Yp9ulje">
	<path d="M218.3,125.8c-1.5-0.1-2.6-0.7-3.3-1.8c-0.7-1-0.9-2.4-0.7-4.3l0-0.5l1,0.1l0,0.5c-0.1,1.1-0.1,1.9,0.1,2.5&#10;&#9;&#9;s0.4,1.1,0.7,1.5c0.3,0.3,0.7,0.6,1.1,0.7c0.4,0.1,0.8,0.2,1.2,0.3c1.1,0.1,2.1-0.2,2.8-0.9c0.7-0.7,1.1-1.8,1.3-3.2&#10;&#9;&#9;c0.1-0.8,0-1.4-0.2-1.9c-0.2-0.5-0.5-1-0.8-1.4c-0.3-0.4-0.7-0.7-1.1-0.9c-0.4-0.2-0.7-0.4-0.9-0.5l-0.5-0.3&#10;&#9;&#9;c-0.3-0.2-0.7-0.4-1.1-0.7c-0.4-0.3-0.9-0.7-1.2-1.1c-0.4-0.5-0.7-1-1-1.7c-0.3-0.7-0.3-1.5-0.2-2.4c0.2-1.6,0.6-2.9,1.5-3.8&#10;&#9;&#9;c1-1.1,2.2-1.5,3.6-1.4c1.5,0.1,2.6,0.8,3.3,1.8c0.7,1,0.9,2.4,0.7,4.3l0,0.5l-1-0.1l0-0.5c0.2-1.6,0-2.8-0.6-3.7&#10;&#9;&#9;c-0.5-0.8-1.3-1.2-2.5-1.3c-1.1-0.1-2.1,0.2-2.7,1c-0.7,0.8-1.1,1.9-1.3,3.3c-0.1,0.8,0,1.4,0.2,2c0.2,0.6,0.5,1,0.8,1.4&#10;&#9;&#9;c0.3,0.4,0.7,0.7,1.1,1c0.4,0.2,0.7,0.5,1,0.6l0.5,0.3c0.3,0.1,0.6,0.3,1.1,0.6c0.4,0.3,0.9,0.6,1.3,1.1c0.4,0.5,0.7,1,1,1.7&#10;&#9;&#9;s0.4,1.5,0.3,2.4c-0.2,1.6-0.7,2.8-1.5,3.7C221,125.5,219.8,125.9,218.3,125.8z" id="el_v_mrk6otHpm"/>
	<path d="M227.7,106.2l-0.9,9.1l6.7,0.6l-0.1,1l-6.7-0.6l-0.9,9.2l6.7,0.6l-0.1,1l-7.6-0.7l2.1-21.3l7.6,0.7l-0.1,1&#10;&#9;&#9;L227.7,106.2z" id="el_12KJHI7v1-b"/>
	<path d="M235.3,127.4l-1-0.1l2.4-7.2l0-0.1l4.6-13.5l0.8,0.1l2.8,21.7l-1-0.1l-0.8-6.6l-5.6-0.5L235.3,127.4z&#10;&#9;&#9; M241.3,109.3l-3.6,10.9l5.1,0.5L241.3,109.3z" id="el_0yA3gCGVPCY"/>
	<path d="M255,119.6c0.9,1,1.2,2.3,1.1,3.9l-0.6,5.9l-1-0.1l0.6-5.9c0.1-1.3-0.1-2.3-0.8-3.1c-0.6-0.8-1.6-1.2-2.8-1.3&#10;&#9;&#9;l-0.5,0l-2.4-0.2l-1,9.9l-1-0.1l2.1-21.3l3.8,0.4c1.7,0.2,2.9,0.7,3.6,1.7c0.7,1,1,2.5,0.8,4.4c-0.2,1.9-0.7,3.3-1.6,4.1&#10;&#9;&#9;c-0.4,0.4-0.8,0.7-1.4,0.9C254.4,118.9,254.7,119.2,255,119.6z M251.6,117.9c1.4,0.1,2.4-0.1,3.1-0.8c0.7-0.7,1.1-1.9,1.3-3.5&#10;&#9;&#9;c0.2-1.7,0-2.9-0.6-3.7c-0.5-0.8-1.5-1.2-2.9-1.4l-2.8-0.3l-0.9,9.3l2.4,0.2L251.6,117.9z" id="el_YGbdM6FlC3q"/>
	<path d="M262.1,130c-0.5-0.1-1.1-0.2-1.6-0.4c-0.5-0.2-1-0.5-1.4-1c-0.4-0.5-0.7-1.1-0.9-1.8c-0.2-0.8-0.2-1.7-0.1-2.9&#10;&#9;&#9;l1-10c0.1-1.2,0.3-2.1,0.7-2.8c0.3-0.7,0.8-1.2,1.2-1.6s1-0.6,1.5-0.7c0.5-0.1,1.1-0.1,1.6-0.1c0.5,0,1,0.2,1.5,0.4s1,0.5,1.4,1&#10;&#9;&#9;s0.7,1.1,0.9,1.8c0.2,0.8,0.2,1.7,0.1,2.9l0,0.5l-1-0.1l0-0.5c0.2-1.6,0-2.8-0.5-3.6c-0.5-0.8-1.4-1.2-2.5-1.4&#10;&#9;&#9;c-1.2-0.1-2.1,0.2-2.8,0.8c-0.7,0.7-1.1,1.8-1.2,3.4l-1,10c-0.2,1.6,0,2.8,0.6,3.7c0.5,0.8,1.3,1.2,2.5,1.4c1.1,0.1,2-0.2,2.7-0.9&#10;&#9;&#9;c0.7-0.7,1.1-1.9,1.2-3.5l0-0.5l1,0.1l0,0.5c-0.1,1.2-0.3,2.1-0.7,2.8c-0.3,0.7-0.8,1.2-1.2,1.6c-0.5,0.4-1,0.6-1.5,0.7&#10;&#9;&#9;C263.1,130.1,262.6,130.1,262.1,130z" id="el_iW51g_AZOiN"/>
	<path d="M279,110.2l-2.1,21.3l-1-0.1l1-10.1l-6.4-0.6l-1,10.1l-1-0.1l2.1-21.3l1,0.1l-1,10.2l6.4,0.6l1-10.2L279,110.2&#10;&#9;&#9;z" id="el_hz3SAmUPn33"/>
	<path d="M279.7,131.8l2.1-21.3l1,0.1l-2.1,21.3L279.7,131.8z" id="el_1srBk-PZUUh"/>
	<path d="M283.7,132.2l-1-0.1l2.1-21.3l0.9,0.1l5.6,18.9l1.8-18.2l1,0.1l-2.1,21.3l-0.8-0.1l-5.6-18.9L283.7,132.2z" id="el_SoBWJqwjzIB"/>
	<path d="M298.7,133.6c-1.5-0.1-2.6-0.7-3.3-1.8c-0.6-1-0.9-2.5-0.7-4.3l1-10.1c0.2-1.8,0.7-3.2,1.5-4&#10;&#9;&#9;c0.9-0.9,2.1-1.3,3.6-1.1c1.5,0.1,2.6,0.7,3.3,1.8c0.7,1,0.9,2.4,0.7,4.2l0,0.5l-1-0.1l0-0.5c0.1-1,0.1-1.9-0.1-2.5&#10;&#9;&#9;c-0.2-0.6-0.4-1.1-0.7-1.5c-0.3-0.3-0.7-0.6-1.1-0.7c-0.4-0.1-0.8-0.2-1.2-0.3s-0.8,0-1.2,0c-0.4,0.1-0.8,0.2-1.2,0.5&#10;&#9;&#9;c-0.4,0.3-0.7,0.7-1,1.3c-0.3,0.6-0.5,1.4-0.6,2.4l-1,10.1c-0.2,1.6,0,2.8,0.6,3.6c0.5,0.8,1.3,1.2,2.5,1.4&#10;&#9;&#9;c1.2,0.1,2.1-0.2,2.7-0.9c0.7-0.7,1.1-1.9,1.3-3.4l0.3-2.8l-4.6-0.4l0.1-1l5.6,0.5l-0.4,3.8c-0.2,1.8-0.7,3.2-1.5,4.1&#10;&#9;&#9;C301.4,133.4,300.2,133.7,298.7,133.6z" id="el_35KwAzLSCBf"/>
</g>
<g id="el_sl4JfTTbS82_an_bXkiQUeLC" data-animator-group="true" data-animator-type="0"><g id="el_sl4JfTTbS82_an_jyxI5-wmt" data-animator-group="true" data-animator-type="1"><path d="M263.6,196.5c0,0-10.1,52.6-2.2,55.8c7.9,3.3,13.6-39.3,13.2-56.1C274.6,196.2,274.6,196.2,263.6,196.5z" id="el_sl4JfTTbS82"/></g></g>
<g id="el_aePnh0SSgdG_an_yv79Jhhxe" data-animator-group="true" data-animator-type="0"><g id="el_aePnh0SSgdG_an_j_63FRNRQ" data-animator-group="true" data-animator-type="1"><g id="el_aePnh0SSgdG">
	<path d="M316,152c0,23.8-19.3,43-43,43c-23.8,0-43-19.3-43-43c0-23.8,19.3-43,43-43C296.8,109,316,128.3,316,152z" id="el_ItYqk7IjEW6"/>
	<path d="M316,152c0,23.8-19.3,43-43,43c-23.8,0-43-19.3-43-43c0-23.8,19.3-43,43-43C296.8,109,316,128.3,316,152z" id="el_Wp8v96iZUt3"/>
	<path d="M243.9,168.6c0,0-7.9-21.1,0.6-34.9c11.7-18.9,33.7-15.1,33.7-15.1s-18.9-0.3-30,16.7&#10;&#9;&#9;C241.3,145.9,243.9,168.6,243.9,168.6z" id="el_SRIKSM6vRaF"/>
	<path d="M260.3,181.5c0,0,22.3,7,34.6-5c13-12.6,10.8-35.4,10.8-35.4s-3,23.2-12.8,31.9&#10;&#9;&#9;C283.4,181.4,260.3,181.5,260.3,181.5z" id="el_Va5UKUbAnBD"/>
</g></g></g>
<g id="el_9TDTeCZoZiy_an_lQginWYLi" data-animator-group="true" data-animator-type="0"><g id="el_9TDTeCZoZiy">
	<path d="M251.8,235.6c0,0,14.3,4.4,19.6,0.1c5.3-4.3,0.7,23.9-21.2,8.9L251.8,235.6z" id="el_-JXD1ArIJX7"/>
	<path d="M191.2,202.6c-12,12.8,15.6,39.1,59,45.9c0,0,17-11.5-0.2-21.7C232.7,216.6,202.9,190.1,191.2,202.6z" id="el_tEQ5LhcFak9"/>
	<path d="M239.8,243c-14.4-2.5-42.3-18.1-44.7-27.5l0,0c0,0,40.6,23.2,52.3,26.8C247.3,242.3,244.7,243.9,239.8,243z" id="el_bQl2boH6dXY"/>
</g></g>
</svg>