<?xml version="1.0" encoding="utf-8"?>
<!-- Generator: Adobe Illustrator 22.0.0, SVG Export Plug-In . SVG Version: 6.00 Build 0)  -->
<svg version="1.1" id="Layer_1" xmlns="http://www.w3.org/2000/svg" xmlns:xlink="http://www.w3.org/1999/xlink" x="0px" y="0px"
	 viewBox="0 0 500 400" style="enable-background:new 0 0 500 400;" xml:space="preserve">
<style type="text/css">
	.st0{fill:#2D2A44;}
	.st1{fill:#F6FEFF;}
	.st2{opacity:0.3;fill:#B9B8B3;}
	.st3{opacity:0.2;fill:#EEE8E0;}
	.st4{opacity:0.4;fill:#FAFCFB;}
	.st5{fill:#FAFCFB;}
	.st6{fill:#722127;}
	.st7{fill:#B8E3F6;}
	.st8{fill:#E3424E;}
	.st9{fill:#E96871;}
	.st10{opacity:0.4;fill:#722127;}
	.st11{fill:#EEE8E0;}
</style>
<g>
	<path class="st0" d="M375,367.3c0,5.8-55.3,10.4-123.5,10.4c-68.2,0-123.5-4.7-123.5-10.4c0-5.8,55.3-10.4,123.5-10.4
		C319.7,356.9,375,361.6,375,367.3z"/>
	<g>
		<path class="st0" d="M181.4,322.1c0,14.2,11.5,25.7,25.7,25.7c14.2,0,25.7-11.5,25.7-25.7c0-14.2-11.5-25.7-25.7-25.7
			C192.9,296.3,181.4,307.9,181.4,322.1z"/>
		<path class="st1" d="M187.2,305.9c0,0-36.3,26-21.2,50.4c15.1,24.4,29.2,12.5,29.2,12.5l33.1-29.7
			C228.2,339.1,209.3,321.9,187.2,305.9z"/>
		<g>
			<path class="st0" d="M163.2,342.4c0,0,4.3,17.5,10,17.6c5.7,0.1,58.1-25.4,54.6-29.5c-3.5-4.1-3.2-5.3-3.2-5.3L163.2,342.4z"/>
			<path class="st1" d="M186.4,348.9c-3.5,5.5-25.7,6.7-14.5,18.7c7.7,8.2,43.7,21,67.9,18.2c0,0-9.6-22,13.4-29
				c0,0-21.1-30.3-40.8-29.3C192.8,328.5,190.7,342.2,186.4,348.9z"/>
			<path class="st2" d="M196.6,344.4c0,0,21.9-14.8,41.4,9.4C237.9,353.9,221.4,319.9,196.6,344.4z"/>
			<path class="st2" d="M234,378.9c0,0-35.5-4.5-49.5-20c0,0-9.3-0.2-8.6,2.3C176.7,363.8,215.9,388.1,234,378.9z"/>
		</g>
	</g>
	<path class="st0" d="M232.4,361.2c0,0,41.3-11.2,47.2-1.9c5.9,9.3-23.2,22-42.5,33.6C217.8,404.4,210.3,365.8,232.4,361.2z"/>
	<path class="st0" d="M334.3,237.6c0,11.8-9.5,21.3-21.3,21.3c-11.8,0-21.3-9.5-21.3-21.3c0-11.8,9.5-21.3,21.3-21.3
		C324.7,216.3,334.3,225.9,334.3,237.6z"/>
	<path class="st0" d="M206.6,237.6c0,11.8-9.5,21.3-21.3,21.3c-11.8,0-21.3-9.5-21.3-21.3c0-11.8,9.5-21.3,21.3-21.3
		C197.1,216.3,206.6,225.9,206.6,237.6z"/>
	<g>
		<path class="st0" d="M367.7,131.8c0,19.4-15.8,35.2-35.2,35.2c-19.4,0-35.2-15.8-35.2-35.2s15.8-35.2,35.2-35.2
			C351.9,96.6,367.7,112.4,367.7,131.8z"/>
		<path class="st0" d="M191.4,131.8c0,19.4-15.8,35.2-35.2,35.2S121,151.3,121,131.8s15.8-35.2,35.2-35.2S191.4,112.4,191.4,131.8z"
			/>
		<path class="st0" d="M131,130.2c0-15.2,9.9-28.4,23.5-33.5c-18.7,0.9-33.5,16.2-33.5,35.1c0,19.4,15.8,35.2,35.2,35.2
			c3,0,5.9-0.4,8.7-1.1C146.2,164.9,131,149.1,131,130.2z"/>
		<path class="st0" d="M358.1,130.2c0-15.2-9.9-28.4-23.5-33.5c18.7,0.9,33.5,16.2,33.5,35.1c0,19.4-15.8,35.2-35.2,35.2
			c-3,0-5.9-0.4-8.7-1.1C342.8,164.9,358.1,149.1,358.1,130.2z"/>
		<path class="st0" d="M328.6,86.5c0,23.3-37.8,38.9-84.3,38.9c-46.6,0-84.3-15.2-84.3-38.5c0-23.3,37.8-45.9,84.3-45.9
			C290.9,41,328.6,63.2,328.6,86.5z"/>
		<path class="st3" d="M238.1,43.2c28.4-1.9,56.5,7,80.1,22.8c0.1,0,0.2,0.1,0.2,0.1c0.4,0.2,0.7,0.4,1.1,0.6
			C305.5,52,277.1,41,244.3,41c-42.7,0-77.9,19-83.5,40.1C179.3,58.5,206.6,45.2,238.1,43.2z"/>
		<path class="st0" d="M297.9,181.1c0,21.9-23.9,39.7-53.4,39.7c-29.5,0-53.4-17.8-53.4-39.7c0-21.9,23.9-39.7,53.4-39.7
			C274,141.4,297.9,159.2,297.9,181.1z"/>
		<path class="st1" d="M244.5,49.8c-72.9,0-102.9,55.8-102.9,79.2c0,62.8,72.3,66.7,102.9,66.7c30.7,0,102.9-6.9,102.9-66.7
			C347.4,105.6,317.4,49.8,244.5,49.8z"/>
		<path class="st0" d="M175.2,165.5c0,0-8-39.5-4.7-70.1c0,0,77.9-30.6,151,2.6c0,0,4.2,48-7.7,68
			C313.8,166,238.4,188.2,175.2,165.5z"/>
		<path class="st4" d="M181.9,102.5c0,0,64.9-27.5,129.8,0.3l-1.4,3.4H183L181.9,102.5z"/>
		<path class="st4" d="M181.9,154c0,0,64.9,27.5,129.8-0.3l-1.4-3.4H183L181.9,154z"/>
		<path class="st4" d="M191.1,136.8l33.7-21.1C224.7,115.7,214.6,131.2,191.1,136.8z"/>
		<path class="st4" d="M225.9,136.8l33.7-21.1C259.6,115.7,249.4,131.2,225.9,136.8z"/>
		<path class="st4" d="M260.7,136.8l33.7-21.1C294.4,115.7,284.2,131.2,260.7,136.8z"/>
		<path class="st2" d="M183.4,78.7c0,0,50.8-31.9,114.6-6.6C297.9,72.1,235.2,32.5,183.4,78.7z"/>
		<path class="st2" d="M183.4,176.8c0,0,64.6,20.7,128.4-4.6C311.7,172.2,240.7,211.6,183.4,176.8z"/>
	</g>
	<g>
		<path class="st0" d="M317.9,322.1c0,14.2-11.5,25.7-25.7,25.7c-14.2,0-25.7-11.5-25.7-25.7c0-14.2,11.5-25.7,25.7-25.7
			C306.4,296.3,317.9,307.9,317.9,322.1z"/>
		<path class="st1" d="M312.2,305.9c0,0,36.3,26,21.2,50.4c-15.1,24.4-29.2,12.5-29.2,12.5l-33.1-29.7
			C271.1,339.1,290,321.9,312.2,305.9z"/>
		<g>
			<path class="st0" d="M336.2,340c0,0-4.3,17.5-10,17.6c-5.7,0.1-58.1-25.4-54.6-29.5c3.5-4.1,3.2-5.3,3.2-5.3L336.2,340z"/>
			<path class="st1" d="M312.9,346.6c3.5,5.5,25.7,6.7,14.5,18.7c-7.7,8.2-43.7,21-67.9,18.2c0,0,9.6-22-13.4-29
				c0,0,21.1-30.3,40.8-29.3C306.6,326.1,308.7,339.9,312.9,346.6z"/>
			<path class="st2" d="M302.8,342.1c0,0-21.9-14.8-41.4,9.4C261.4,351.5,277.9,317.6,302.8,342.1z"/>
			<path class="st2" d="M265.3,376.6c0,0,35.5-4.5,49.5-20c0,0,9.3-0.2,8.6,2.3C322.7,361.5,283.5,385.7,265.3,376.6z"/>
		</g>
	</g>
	<g>
		<path class="st1" d="M249.2,203.9c-16.4,0-38.3-6.5-56.9,12.9v85.8c0,0,35.3,19.4,35.3,38.9c0,0,3.5,8.9,22.1,8.9
			c13.8,0,21.5-8.9,21.5-8.9c0-19.4,34.9-38.9,34.9-38.9v-85.8C287.5,197.3,263.7,203.9,249.2,203.9z"/>
		<rect x="213.2" y="224.6" class="st0" width="69.6" height="76.6"/>
		<path class="st2" d="M228.9,330.4c0,0,19.1,18.9,42.3-0.6C271.2,329.8,249.7,358.4,228.9,330.4z"/>
		<path class="st5" d="M233,235.2c0,2.8-2.3,5.1-5.1,5.1c-2.8,0-5.1-2.3-5.1-5.1s2.3-5.1,5.1-5.1C230.7,230.1,233,232.4,233,235.2z"
			/>
		<path class="st5" d="M253.9,235.2c0,2.8-2.3,5.1-5.1,5.1c-2.8,0-5.1-2.3-5.1-5.1s2.3-5.1,5.1-5.1
			C251.6,230.1,253.9,232.4,253.9,235.2z"/>
		<path class="st5" d="M274.8,235.2c0,2.8-2.3,5.1-5.1,5.1s-5.1-2.3-5.1-5.1s2.3-5.1,5.1-5.1S274.8,232.4,274.8,235.2z"/>
		<path class="st5" d="M233,288.5c0,2.8-2.3,5.1-5.1,5.1c-2.8,0-5.1-2.3-5.1-5.1s2.3-5.1,5.1-5.1C230.7,283.5,233,285.7,233,288.5z"
			/>
		<path class="st5" d="M253.9,288.5c0,2.8-2.3,5.1-5.1,5.1c-2.8,0-5.1-2.3-5.1-5.1s2.3-5.1,5.1-5.1
			C251.6,283.5,253.9,285.7,253.9,288.5z"/>
		<path class="st5" d="M274.8,288.5c0,2.8-2.3,5.1-5.1,5.1s-5.1-2.3-5.1-5.1s2.3-5.1,5.1-5.1S274.8,285.7,274.8,288.5z"/>
		<rect x="224.8" y="245.5" class="st5" width="48.7" height="30.2"/>
		<g>
			<path class="st0" d="M217.7,219.2c0,0.8-0.7,1.5-1.5,1.5c-0.8,0-1.5-0.7-1.5-1.5c0-0.8,0.7-1.5,1.5-1.5
				C217,217.7,217.7,218.4,217.7,219.2z"/>
			<path class="st0" d="M224.7,219.2c0,0.8-0.7,1.5-1.5,1.5c-0.8,0-1.5-0.7-1.5-1.5c0-0.8,0.7-1.5,1.5-1.5
				C224,217.7,224.7,218.4,224.7,219.2z"/>
			<path class="st0" d="M231.6,219.2c0,0.8-0.7,1.5-1.5,1.5c-0.8,0-1.5-0.7-1.5-1.5c0-0.8,0.7-1.5,1.5-1.5
				C231,217.7,231.6,218.4,231.6,219.2z"/>
			<path class="st0" d="M238.6,219.2c0,0.8-0.7,1.5-1.5,1.5c-0.8,0-1.5-0.7-1.5-1.5c0-0.8,0.7-1.5,1.5-1.5
				C237.9,217.7,238.6,218.4,238.6,219.2z"/>
			<path class="st0" d="M245.6,219.2c0,0.8-0.7,1.5-1.5,1.5c-0.8,0-1.5-0.7-1.5-1.5c0-0.8,0.7-1.5,1.5-1.5
				C244.9,217.7,245.6,218.4,245.6,219.2z"/>
			<path class="st0" d="M252.5,219.2c0,0.8-0.7,1.5-1.5,1.5c-0.8,0-1.5-0.7-1.5-1.5c0-0.8,0.7-1.5,1.5-1.5
				C251.8,217.7,252.5,218.4,252.5,219.2z"/>
			<path class="st0" d="M259.5,219.2c0,0.8-0.7,1.5-1.5,1.5c-0.8,0-1.5-0.7-1.5-1.5c0-0.8,0.7-1.5,1.5-1.5
				C258.8,217.7,259.5,218.4,259.5,219.2z"/>
			<path class="st0" d="M266.5,219.2c0,0.8-0.7,1.5-1.5,1.5c-0.8,0-1.5-0.7-1.5-1.5c0-0.8,0.7-1.5,1.5-1.5
				C265.8,217.7,266.5,218.4,266.5,219.2z"/>
			<path class="st0" d="M273.4,219.2c0,0.8-0.7,1.5-1.5,1.5c-0.8,0-1.5-0.7-1.5-1.5c0-0.8,0.7-1.5,1.5-1.5
				C272.7,217.7,273.4,218.4,273.4,219.2z"/>
			<path class="st0" d="M280.4,219.2c0,0.8-0.7,1.5-1.5,1.5c-0.8,0-1.5-0.7-1.5-1.5c0-0.8,0.7-1.5,1.5-1.5
				C279.7,217.7,280.4,218.4,280.4,219.2z"/>
		</g>
		<g>
			<path class="st0" d="M217.7,307.4c0,0.8-0.7,1.5-1.5,1.5c-0.8,0-1.5-0.7-1.5-1.5s0.7-1.5,1.5-1.5
				C217,305.9,217.7,306.6,217.7,307.4z"/>
			<path class="st0" d="M224.7,307.4c0,0.8-0.7,1.5-1.5,1.5c-0.8,0-1.5-0.7-1.5-1.5s0.7-1.5,1.5-1.5
				C224,305.9,224.7,306.6,224.7,307.4z"/>
			<path class="st0" d="M231.6,307.4c0,0.8-0.7,1.5-1.5,1.5c-0.8,0-1.5-0.7-1.5-1.5s0.7-1.5,1.5-1.5
				C231,305.9,231.6,306.6,231.6,307.4z"/>
			<path class="st0" d="M238.6,307.4c0,0.8-0.7,1.5-1.5,1.5c-0.8,0-1.5-0.7-1.5-1.5s0.7-1.5,1.5-1.5
				C237.9,305.9,238.6,306.6,238.6,307.4z"/>
			<path class="st0" d="M245.6,307.4c0,0.8-0.7,1.5-1.5,1.5c-0.8,0-1.5-0.7-1.5-1.5s0.7-1.5,1.5-1.5
				C244.9,305.9,245.6,306.6,245.6,307.4z"/>
			<path class="st0" d="M252.5,307.4c0,0.8-0.7,1.5-1.5,1.5c-0.8,0-1.5-0.7-1.5-1.5s0.7-1.5,1.5-1.5
				C251.8,305.9,252.5,306.6,252.5,307.4z"/>
			<path class="st0" d="M259.5,307.4c0,0.8-0.7,1.5-1.5,1.5c-0.8,0-1.5-0.7-1.5-1.5s0.7-1.5,1.5-1.5
				C258.8,305.9,259.5,306.6,259.5,307.4z"/>
			<path class="st0" d="M266.5,307.4c0,0.8-0.7,1.5-1.5,1.5c-0.8,0-1.5-0.7-1.5-1.5s0.7-1.5,1.5-1.5
				C265.8,305.9,266.5,306.6,266.5,307.4z"/>
			<path class="st0" d="M273.4,307.4c0,0.8-0.7,1.5-1.5,1.5c-0.8,0-1.5-0.7-1.5-1.5s0.7-1.5,1.5-1.5
				C272.7,305.9,273.4,306.6,273.4,307.4z"/>
			<path class="st0" d="M280.4,307.4c0,0.8-0.7,1.5-1.5,1.5c-0.8,0-1.5-0.7-1.5-1.5s0.7-1.5,1.5-1.5
				C279.7,305.9,280.4,306.6,280.4,307.4z"/>
		</g>
	</g>
	<path class="st0" d="M246.1,352.1c0,0-40.7,13.3-40.6,24.2c0.2,11,31.5,5.7,54,4.8C282,380.3,267.1,343.8,246.1,352.1z"/>
	<g>
		<polygon class="st6" points="268.9,301.2 268.9,340.3 267.6,338.5 266.6,340.3 266.6,301.2 		"/>
		<path class="st7" d="M252.6,255c0,0-10.7-27.9-44-31.6l-4.9,12.1L252.6,255z"/>
		<path class="st7" d="M252.6,255c0,0,10.7-27.9,44-31.6l4.9,12.1L252.6,255z"/>
		<path class="st8" d="M199.3,229.6c0,0,18.6-0.5,46.4,22.4v72.4c0,0-37.1-10.4-46.4-12.9V229.6z"/>
		<path class="st8" d="M306,229.6c0,0-18.6-0.5-46.4,22.4v72.4c0,0,37.1-10.4,46.4-12.9V229.6z"/>
		<rect x="245.7" y="250.1" class="st9" width="13.9" height="76.6"/>
		<polygon class="st10" points="268.9,268.9 296.7,262.3 296.7,257.1 268.9,265.5 		"/>
		<polygon class="st10" points="268.9,285.2 296.7,278.6 296.7,273.3 268.9,281.7 		"/>
	</g>
	<path class="st11" d="M368.4,249.7c0,0-23.3-21.3-37.9-24.1c0,0-4.6,23.7-9,31.5c0,0,35.3-12.7,46.1-7"/>
	<g>
		<path class="st0" d="M283.5,281.9c0,0-10.5,2.3-9.3,7.9c1.2,5.6,2,11.3,16.8,5.2L283.5,281.9z"/>
		<path class="st1" d="M368.4,249.7c13.3,17.6-24.7,46.6-79.7,49.2c0,0-19.7-16.6,3.2-27C314.8,261.6,355.5,232.6,368.4,249.7z"/>
		<path class="st2" d="M302.4,294.3c18.3-1.1,55.2-16.8,59.5-28.2l0,0c0,0-53.7,23.4-68.8,26.3C293.1,292.4,296.4,294.7,302.4,294.3
			z"/>
	</g>
	<path class="st11" d="M136.9,249.7c0,0,17.4-22.7,31.9-25.5c0,0,10.6,25,14.9,32.8c0,0-35.3-12.7-46.1-7"/>
	<g>
		<path class="st0" d="M221.8,281.9c0,0,10.5,2.3,9.3,7.9c-1.2,5.6-2,11.3-16.8,5.2L221.8,281.9z"/>
		<path class="st1" d="M136.9,249.7c-13.3,17.6,24.7,46.6,79.7,49.2c0,0,19.7-16.6-3.2-27C190.5,261.6,149.8,232.6,136.9,249.7z"/>
		<path class="st2" d="M202.9,294.3c-18.3-1.1-55.2-16.8-59.5-28.2l0,0c0,0,53.7,23.4,68.8,26.3
			C212.2,292.4,208.9,294.7,202.9,294.3z"/>
	</g>
</g>
<g>
	<path class="st5" d="M203.5,137.6c0-2.7,1.8-4.6,4.4-4.6c2.6,0,4.3,1.9,4.3,4.6c0,2.6-1.7,4.6-4.4,4.6
		C205.3,142.2,203.5,140.2,203.5,137.6z"/>
	<path class="st5" d="M280.9,137.6c0-2.7,1.8-4.6,4.4-4.6s4.3,1.9,4.3,4.6c0,2.6-1.7,4.6-4.4,4.6
		C282.7,142.2,280.9,140.2,280.9,137.6z"/>
</g>
<g>
	<path class="st5" d="M265.3,143.5v3.7h-36.7v-3.7H265.3z"/>
</g>
<circle cx="198" cy="12" r="5"/>
<circle cx="298" cy="12" r="5"/>
<circle cx="248" cy="12" r="5"/>
</svg>
