<svg xmlns="http://www.w3.org/2000/svg" viewBox="0 0 207.79 294.78"><defs><style>.cls-1{isolation:isolate;}.cls-2,.cls-3,.cls-4{fill:#2d2a44;}.cls-2,.cls-7,.cls-9{mix-blend-mode:soft-light;}.cls-4{mix-blend-mode:multiply;}.cls-5{fill:#eee8e0;opacity:0.2;}.cls-13,.cls-6{fill:#f6feff;}.cls-10,.cls-7,.cls-9{fill:#fafcfb;}.cls-13,.cls-7{opacity:0.4;}.cls-8{fill:#b9b8b3;opacity:0.3;}.cls-10{font-size:31.7px;font-family:OstrichSans-Medium, Ostrich Sans;}.cls-11{fill:#722127;}.cls-12{fill:none;stroke:#e3424e;stroke-miterlimit:10;stroke-width:3px;}</style></defs><title>ss</title><g class="cls-1"><g id="Layer_1" data-name="Layer 1"><path class="cls-2" d="M343.19,339.06c0,4.6-44.12,8.33-98.55,8.33s-98.54-3.73-98.54-8.33,44.12-8.33,98.54-8.33S343.19,334.46,343.19,339.06Z" transform="translate(-146.1 -52.61)"/><circle class="cls-3" cx="53.19" cy="157.05" r="16.98"/><path class="cls-3" d="M353.45,134.76a28.09,28.09,0,1,1-25.24-30.67A28.09,28.09,0,0,1,353.45,134.76Z" transform="translate(-146.1 -52.61)"/><path class="cls-3" d="M213.51,121.17A28.09,28.09,0,1,1,188.27,90.5,28.09,28.09,0,0,1,213.51,121.17Z" transform="translate(-146.1 -52.61)"/><path class="cls-4" d="M165.66,115.24a28.83,28.83,0,0,1,21.27-24.8,28.07,28.07,0,1,0,2.87,55.75A28.82,28.82,0,0,1,165.66,115.24Z" transform="translate(-146.1 -52.61)"/><path class="cls-4" d="M346,132.75a28.84,28.84,0,0,0-16.1-28.43,28.07,28.07,0,1,1-13.54,54.16A28.81,28.81,0,0,0,346,132.75Z" transform="translate(-146.1 -52.61)"/><path class="cls-3" d="M326,95.77c-1.8,18.51-33,28-70,24.4s-65.78-18.58-64-37.09,33.52-33.53,70.49-29.93S327.77,77.26,326,95.77Z" transform="translate(-146.1 -52.61)"/><path class="cls-5" d="M257.39,54.38c22.7.72,44.33,10,61.82,24.26a1,1,0,0,1,.17.1c.28.17.53.36.8.53-9.95-12.69-31.64-23.6-57.65-26.12-33.87-3.29-63.32,9-69.4,25.36C209.55,62.05,232.25,53.58,257.39,54.38Z" transform="translate(-146.1 -52.61)"/><path class="cls-3" d="M294.3,168.51c-1.69,17.4-22.06,29.66-45.5,27.38s-41.06-18.22-39.37-35.62,22.06-29.66,45.49-27.39S296,151.11,294.3,168.51Z" transform="translate(-146.1 -52.61)"/><path class="cls-6" d="M262,60.11c-57.86-5.62-86,36.37-87.84,55C169.31,165,226.4,173.6,250.74,176s82.26,2.45,86.87-45C339.42,112.35,319.86,65.73,262,60.11Z" transform="translate(-146.1 -52.61)"/><path class="cls-3" d="M198,146.64s-3.3-32,1.65-56c0,0,64.2-18.26,119.72,13.75,0,0-.34,38.4-11.32,53.38C308.09,157.75,246.51,169.58,198,146.64Z" transform="translate(-146.1 -52.61)"/><path class="cls-7" d="M208.25,97.18s53.65-16.8,103,10.23L310,110l-101.12-9.82Z" transform="translate(-146.1 -52.61)"/><path class="cls-7" d="M204.28,138.05s49.41,26.82,103.08,9.81l-.82-2.81-101.11-9.83Z" transform="translate(-146.1 -52.61)"/><path class="cls-7" d="M212.84,125.1l28.38-14.19S232,122.44,212.84,125.1Z" transform="translate(-146.1 -52.61)"/><path class="cls-7" d="M240.48,127.79l28.38-14.19S259.64,125.13,240.48,127.79Z" transform="translate(-146.1 -52.61)"/><path class="cls-7" d="M268.12,130.47l28.38-14.19S287.28,127.81,268.12,130.47Z" transform="translate(-146.1 -52.61)"/><path class="cls-8" d="M211.23,78.37S254,57,302.7,82C302.7,82,256,45.72,211.23,78.37Z" transform="translate(-146.1 -52.61)"/><path class="cls-8" d="M203.67,156.26s49.66,21.39,102.27,6.25C305.94,162.51,246.46,188.35,203.67,156.26Z" transform="translate(-146.1 -52.61)"/><path class="cls-3" d="M291.53,259.67s8.16,2.45,7.53,7S272.8,299,270,295.71s-12.28-12.5-12.28-12.5Z" transform="translate(-146.1 -52.61)"/><path class="cls-3" d="M282.9,338.13s3.88-18.91,18.9-18.91,19.26,18.91,19.26,18.91Z" transform="translate(-146.1 -52.61)"/><path class="cls-6" d="M288.76,275.74c4.76-2.09,8.39-19.43,16.5-9.16,5.55,7.05,11.26,37,6.09,55.75,0,0-16.18-10.21-24.53,7,0,0-20-18.4-16.8-33.78S283,278.3,288.76,275.74Z" transform="translate(-146.1 -52.61)"/><path class="cls-8" d="M284,283.21s-14.33,15.51,2.44,33.75C286.41,317,261.62,299.84,284,283.21Z" transform="translate(-146.1 -52.61)"/><path class="cls-8" d="M306.64,317s.78-28.54-9.75-41.48c0,0,1-7.36,2.88-6.47S316.05,303.72,306.64,317Z" transform="translate(-146.1 -52.61)"/><path class="cls-3" d="M206.32,259.67s-8.16,2.45-7.54,7,26.27,32.31,29.05,29.07,12.28-12.5,12.28-12.5Z" transform="translate(-146.1 -52.61)"/><path class="cls-3" d="M215,338.13s-3.88-18.91-18.91-18.91-19.25,18.91-19.25,18.91Z" transform="translate(-146.1 -52.61)"/><path class="cls-8" d="M215,283.21s14.34,15.51-2.43,33.75C212.52,317,237.31,299.84,215,283.21Z" transform="translate(-146.1 -52.61)"/><path class="cls-8" d="M192.22,314.31s-4-25.89,6.53-38.83c0,0-1-7.36-2.88-6.47S182.81,301.07,192.22,314.31Z" transform="translate(-146.1 -52.61)"/><path class="cls-6" d="M209.08,275.74c-4.76-2.09-8.38-19.43-16.49-9.16-5.56,7.05-11.26,37-6.09,55.75,0,0,16.17-10.21,24.52,7,0,0,20-18.4,16.8-33.78S214.89,278.3,209.08,275.74Z" transform="translate(-146.1 -52.61)"/><path class="cls-3" d="M325.49,277s1.94,14.86-3.23,19.38,23.4,4.68,12.35-19.38Z" transform="translate(-146.1 -52.61)"/><path class="cls-3" d="M293.71,230.47l16.15-19.38s2.36-16.8-16.15-18.09Z" transform="translate(-146.1 -52.61)"/><path class="cls-6" d="M303.2,211.74c14.71-9.69,35.85,22,35.21,65.88,0,0-14.21,14.86-21.32-3.87S288.9,221.17,303.2,211.74Z" transform="translate(-146.1 -52.61)"/><path class="cls-8" d="M335.43,266.49c0-14.65-10.68-44.75-19.53-48.75h0s16,44,17.56,56.06C333.46,273.8,335.43,271.29,335.43,266.49Z" transform="translate(-146.1 -52.61)"/><path class="cls-6" d="M248.35,182.74c-13.07,0-30.55-5.21-45.36,10.26v68.47s28.13,15.51,28.13,31c0,0,2.78,7.11,17.63,7.11a23.68,23.68,0,0,0,17.11-7.11c0-15.5,27.85-31,27.85-31V193C278.9,177.53,260,182.74,248.35,182.74Z" transform="translate(-146.1 -52.61)"/><rect class="cls-3" x="73.55" y="146.67" width="55.54" height="61.09"/><path class="cls-8" d="M232.17,283.67s15.25,15.1,33.75-.46C265.92,283.21,248.8,306,232.17,283.67Z" transform="translate(-146.1 -52.61)"/><path class="cls-9" d="M235.45,207.7a4,4,0,1,1-4-4A4,4,0,0,1,235.45,207.7Z" transform="translate(-146.1 -52.61)"/><path class="cls-9" d="M252.11,207.7a4,4,0,1,1-4-4A4,4,0,0,1,252.11,207.7Z" transform="translate(-146.1 -52.61)"/><path class="cls-9" d="M268.77,207.7a4,4,0,1,1-4-4A4,4,0,0,1,268.77,207.7Z" transform="translate(-146.1 -52.61)"/><path class="cls-9" d="M235.45,250.28a4,4,0,1,1-4-4A4,4,0,0,1,235.45,250.28Z" transform="translate(-146.1 -52.61)"/><path class="cls-9" d="M252.11,250.28a4,4,0,1,1-4-4A4,4,0,0,1,252.11,250.28Z" transform="translate(-146.1 -52.61)"/><path class="cls-9" d="M268.77,250.28a4,4,0,1,1-4-4A4,4,0,0,1,268.77,250.28Z" transform="translate(-146.1 -52.61)"/><rect class="cls-9" x="82.81" y="163.33" width="38.88" height="24.07"/><circle class="cls-3" cx="75.94" cy="142.39" r="1.22"/><circle class="cls-3" cx="81.49" cy="142.39" r="1.22"/><circle class="cls-3" cx="87.04" cy="142.39" r="1.22"/><path class="cls-3" d="M239.93,195a1.23,1.23,0,1,1-1.23-1.23A1.23,1.23,0,0,1,239.93,195Z" transform="translate(-146.1 -52.61)"/><path class="cls-3" d="M245.48,195a1.23,1.23,0,1,1-1.22-1.23A1.22,1.22,0,0,1,245.48,195Z" transform="translate(-146.1 -52.61)"/><path class="cls-3" d="M251,195a1.23,1.23,0,1,1-1.23-1.23A1.23,1.23,0,0,1,251,195Z" transform="translate(-146.1 -52.61)"/><path class="cls-3" d="M256.59,195a1.23,1.23,0,1,1-1.22-1.23A1.22,1.22,0,0,1,256.59,195Z" transform="translate(-146.1 -52.61)"/><path class="cls-3" d="M262.14,195a1.23,1.23,0,1,1-1.22-1.23A1.22,1.22,0,0,1,262.14,195Z" transform="translate(-146.1 -52.61)"/><path class="cls-3" d="M267.7,195a1.23,1.23,0,1,1-1.23-1.23A1.23,1.23,0,0,1,267.7,195Z" transform="translate(-146.1 -52.61)"/><path class="cls-3" d="M273.25,195a1.23,1.23,0,1,1-1.22-1.23A1.22,1.22,0,0,1,273.25,195Z" transform="translate(-146.1 -52.61)"/><circle class="cls-3" cx="75.94" cy="212.75" r="1.22"/><circle class="cls-3" cx="81.49" cy="212.75" r="1.22"/><circle class="cls-3" cx="87.04" cy="212.75" r="1.22"/><path class="cls-3" d="M239.93,265.36a1.23,1.23,0,1,1-1.23-1.23A1.23,1.23,0,0,1,239.93,265.36Z" transform="translate(-146.1 -52.61)"/><path class="cls-3" d="M245.48,265.36a1.23,1.23,0,1,1-1.22-1.23A1.22,1.22,0,0,1,245.48,265.36Z" transform="translate(-146.1 -52.61)"/><path class="cls-3" d="M251,265.36a1.23,1.23,0,1,1-1.23-1.23A1.23,1.23,0,0,1,251,265.36Z" transform="translate(-146.1 -52.61)"/><path class="cls-3" d="M256.59,265.36a1.23,1.23,0,1,1-1.22-1.23A1.22,1.22,0,0,1,256.59,265.36Z" transform="translate(-146.1 -52.61)"/><path class="cls-3" d="M262.14,265.36a1.23,1.23,0,1,1-1.22-1.23A1.22,1.22,0,0,1,262.14,265.36Z" transform="translate(-146.1 -52.61)"/><path class="cls-3" d="M267.7,265.36a1.23,1.23,0,1,1-1.23-1.23A1.23,1.23,0,0,1,267.7,265.36Z" transform="translate(-146.1 -52.61)"/><path class="cls-3" d="M273.25,265.36a1.23,1.23,0,1,1-1.22-1.23A1.22,1.22,0,0,1,273.25,265.36Z" transform="translate(-146.1 -52.61)"/><text class="cls-10" transform="translate(67.31 72.71) rotate(5.55)">searching</text><path class="cls-11" d="M263.62,196.53s-10.11,52.55-2.22,55.82S275,213,274.63,196.23Z" transform="translate(-146.1 -52.61)"/><path class="cls-9" d="M316,152a43,43,0,1,1-43-43A43,43,0,0,1,316,152Z" transform="translate(-146.1 -52.61)"/><path class="cls-12" d="M316,152a43,43,0,1,1-43-43A43,43,0,0,1,316,152Z" transform="translate(-146.1 -52.61)"/><path class="cls-13" d="M243.9,168.59s-7.94-21.1.61-34.91c11.66-18.86,33.74-15.13,33.74-15.13s-18.85-.3-30,16.72C241.3,145.85,243.9,168.59,243.9,168.59Z" transform="translate(-146.1 -52.61)"/><path class="cls-13" d="M260.35,181.54s22.32,7,34.56-5c13-12.62,10.78-35.37,10.78-35.37s-3,23.17-12.83,31.87C283.37,181.43,260.35,181.54,260.35,181.54Z" transform="translate(-146.1 -52.61)"/><path class="cls-3" d="M251.76,235.63s14.31,4.42,19.64.1.66,23.86-21.19,8.89Z" transform="translate(-146.1 -52.61)"/><path class="cls-6" d="M191.18,202.6c-12.05,12.85,15.56,39.06,59,45.86,0,0,17-11.49-.21-21.67S202.89,190.11,191.18,202.6Z" transform="translate(-146.1 -52.61)"/><path class="cls-8" d="M239.79,243c-14.44-2.51-42.3-18.11-44.74-27.51h0s40.61,23.22,52.28,26.8C247.33,242.3,244.75,243.86,239.79,243Z" transform="translate(-146.1 -52.61)"/></g></g></svg>