<svg version="1.1" id="el_5mEbBA_wv" xmlns="http://www.w3.org/2000/svg" xmlns:xlink="http://www.w3.org/1999/xlink" x="0px" y="0px" viewBox="0 0 500 400" style="enable-background:new 0 0 500 400;" xml:space="preserve"><style>@-webkit-keyframes kf_el_XNGLtd0x4bx_an_zBuOnHqrs{0%{-webkit-transform: translate(198px, 12px) scale(2, 2) translate(-198px, -12px);transform: translate(198px, 12px) scale(2, 2) translate(-198px, -12px);}33.33%{-webkit-transform: translate(198px, 12px) scale(0.1, 0.1) translate(-198px, -12px);transform: translate(198px, 12px) scale(0.1, 0.1) translate(-198px, -12px);}66.67%{-webkit-transform: translate(198px, 12px) scale(0.1, 0.1) translate(-198px, -12px);transform: translate(198px, 12px) scale(0.1, 0.1) translate(-198px, -12px);}100%{-webkit-transform: translate(198px, 12px) scale(0.1, 0.1) translate(-198px, -12px);transform: translate(198px, 12px) scale(0.1, 0.1) translate(-198px, -12px);}}@keyframes kf_el_XNGLtd0x4bx_an_zBuOnHqrs{0%{-webkit-transform: translate(198px, 12px) scale(2, 2) translate(-198px, -12px);transform: translate(198px, 12px) scale(2, 2) translate(-198px, -12px);}33.33%{-webkit-transform: translate(198px, 12px) scale(0.1, 0.1) translate(-198px, -12px);transform: translate(198px, 12px) scale(0.1, 0.1) translate(-198px, -12px);}66.67%{-webkit-transform: translate(198px, 12px) scale(0.1, 0.1) translate(-198px, -12px);transform: translate(198px, 12px) scale(0.1, 0.1) translate(-198px, -12px);}100%{-webkit-transform: translate(198px, 12px) scale(0.1, 0.1) translate(-198px, -12px);transform: translate(198px, 12px) scale(0.1, 0.1) translate(-198px, -12px);}}@-webkit-keyframes kf_el_Ln3s1ZS2QKo_an_stvaa3LZJ{0%{-webkit-transform: translate(298px, 12px) scale(0.1, 0.1) translate(-298px, -12px);transform: translate(298px, 12px) scale(0.1, 0.1) translate(-298px, -12px);}33.33%{-webkit-transform: translate(298px, 12px) scale(0.1, 0.1) translate(-298px, -12px);transform: translate(298px, 12px) scale(0.1, 0.1) translate(-298px, -12px);}66.67%{-webkit-transform: translate(298px, 12px) scale(2, 2) translate(-298px, -12px);transform: translate(298px, 12px) scale(2, 2) translate(-298px, -12px);}100%{-webkit-transform: translate(298px, 12px) scale(0.1, 0.1) translate(-298px, -12px);transform: translate(298px, 12px) scale(0.1, 0.1) translate(-298px, -12px);}}@keyframes kf_el_Ln3s1ZS2QKo_an_stvaa3LZJ{0%{-webkit-transform: translate(298px, 12px) scale(0.1, 0.1) translate(-298px, -12px);transform: translate(298px, 12px) scale(0.1, 0.1) translate(-298px, -12px);}33.33%{-webkit-transform: translate(298px, 12px) scale(0.1, 0.1) translate(-298px, -12px);transform: translate(298px, 12px) scale(0.1, 0.1) translate(-298px, -12px);}66.67%{-webkit-transform: translate(298px, 12px) scale(2, 2) translate(-298px, -12px);transform: translate(298px, 12px) scale(2, 2) translate(-298px, -12px);}100%{-webkit-transform: translate(298px, 12px) scale(0.1, 0.1) translate(-298px, -12px);transform: translate(298px, 12px) scale(0.1, 0.1) translate(-298px, -12px);}}@-webkit-keyframes kf_el_r2prFcqJFe0_an_6vKH00H2f{0%{-webkit-transform: translate(248px, 12px) scale(0.1, 0.1) translate(-248px, -12px);transform: translate(248px, 12px) scale(0.1, 0.1) translate(-248px, -12px);}33.33%{-webkit-transform: translate(248px, 12px) scale(2, 2) translate(-248px, -12px);transform: translate(248px, 12px) scale(2, 2) translate(-248px, -12px);}66.67%{-webkit-transform: translate(248px, 12px) scale(0.1, 0.1) translate(-248px, -12px);transform: translate(248px, 12px) scale(0.1, 0.1) translate(-248px, -12px);}100%{-webkit-transform: translate(248px, 12px) scale(0.1, 0.1) translate(-248px, -12px);transform: translate(248px, 12px) scale(0.1, 0.1) translate(-248px, -12px);}}@keyframes kf_el_r2prFcqJFe0_an_6vKH00H2f{0%{-webkit-transform: translate(248px, 12px) scale(0.1, 0.1) translate(-248px, -12px);transform: translate(248px, 12px) scale(0.1, 0.1) translate(-248px, -12px);}33.33%{-webkit-transform: translate(248px, 12px) scale(2, 2) translate(-248px, -12px);transform: translate(248px, 12px) scale(2, 2) translate(-248px, -12px);}66.67%{-webkit-transform: translate(248px, 12px) scale(0.1, 0.1) translate(-248px, -12px);transform: translate(248px, 12px) scale(0.1, 0.1) translate(-248px, -12px);}100%{-webkit-transform: translate(248px, 12px) scale(0.1, 0.1) translate(-248px, -12px);transform: translate(248px, 12px) scale(0.1, 0.1) translate(-248px, -12px);}}@-webkit-keyframes kf_el_hQk1OozOCeD_an_Cj5rxN7EK{0%{-webkit-transform: translate(203.5px, 133px) translate(-203.5px, -133px) translate(0px, 0px);transform: translate(203.5px, 133px) translate(-203.5px, -133px) translate(0px, 0px);}16.67%{-webkit-transform: translate(203.5px, 133px) translate(-203.5px, -133px) translate(1px, 1px);transform: translate(203.5px, 133px) translate(-203.5px, -133px) translate(1px, 1px);}33.33%{-webkit-transform: translate(203.5px, 133px) translate(-203.5px, -133px) translate(0px, 2px);transform: translate(203.5px, 133px) translate(-203.5px, -133px) translate(0px, 2px);}50%{-webkit-transform: translate(203.5px, 133px) translate(-203.5px, -133px) translate(-1px, 5px);transform: translate(203.5px, 133px) translate(-203.5px, -133px) translate(-1px, 5px);}66.67%{-webkit-transform: translate(203.5px, 133px) translate(-203.5px, -133px) translate(-2px, 4px);transform: translate(203.5px, 133px) translate(-203.5px, -133px) translate(-2px, 4px);}83.33%{-webkit-transform: translate(203.5px, 133px) translate(-203.5px, -133px) translate(0px, 2px);transform: translate(203.5px, 133px) translate(-203.5px, -133px) translate(0px, 2px);}100%{-webkit-transform: translate(203.5px, 133px) translate(-203.5px, -133px) translate(0px, 0px);transform: translate(203.5px, 133px) translate(-203.5px, -133px) translate(0px, 0px);}}@keyframes kf_el_hQk1OozOCeD_an_Cj5rxN7EK{0%{-webkit-transform: translate(203.5px, 133px) translate(-203.5px, -133px) translate(0px, 0px);transform: translate(203.5px, 133px) translate(-203.5px, -133px) translate(0px, 0px);}16.67%{-webkit-transform: translate(203.5px, 133px) translate(-203.5px, -133px) translate(1px, 1px);transform: translate(203.5px, 133px) translate(-203.5px, -133px) translate(1px, 1px);}33.33%{-webkit-transform: translate(203.5px, 133px) translate(-203.5px, -133px) translate(0px, 2px);transform: translate(203.5px, 133px) translate(-203.5px, -133px) translate(0px, 2px);}50%{-webkit-transform: translate(203.5px, 133px) translate(-203.5px, -133px) translate(-1px, 5px);transform: translate(203.5px, 133px) translate(-203.5px, -133px) translate(-1px, 5px);}66.67%{-webkit-transform: translate(203.5px, 133px) translate(-203.5px, -133px) translate(-2px, 4px);transform: translate(203.5px, 133px) translate(-203.5px, -133px) translate(-2px, 4px);}83.33%{-webkit-transform: translate(203.5px, 133px) translate(-203.5px, -133px) translate(0px, 2px);transform: translate(203.5px, 133px) translate(-203.5px, -133px) translate(0px, 2px);}100%{-webkit-transform: translate(203.5px, 133px) translate(-203.5px, -133px) translate(0px, 0px);transform: translate(203.5px, 133px) translate(-203.5px, -133px) translate(0px, 0px);}}#el_5mEbBA_wv *{-webkit-animation-duration: 3s;animation-duration: 3s;-webkit-animation-iteration-count: 1;animation-iteration-count: 1;-webkit-animation-timing-function: cubic-bezier(0, 0, 1, 1);animation-timing-function: cubic-bezier(0, 0, 1, 1);}#el_wmuGUo3he_{fill: #2D2A44;}#el_64qxPg5aNZ{fill: #2D2A44;}#el_7PLAt32SxF{fill: #F6FEFF;}#el_OvuMSRwGCO{fill: #2D2A44;}#el_Lycxvm8q4N{fill: #F6FEFF;}#el_Sdp_9aOHr6{opacity: 0.3;fill: #B9B8B3;}#el_Np-QksfqRw{opacity: 0.3;fill: #B9B8B3;}#el_w2arq-b1-_{fill: #2D2A44;}#el_p0h52UKt_w{fill: #2D2A44;}#el_KwBXFEBXZU{fill: #2D2A44;}#el_aZisVFy3_b{fill: #2D2A44;}#el_hiNcWZ4NlzD{fill: #2D2A44;}#el_YbccCH2OG-4{fill: #2D2A44;}#el_RMcrTpdc5o0{fill: #2D2A44;}#el_khKy03qfKVN{fill: #2D2A44;}#el_bHPsYnrvb9R{opacity: 0.2;fill: #EEE8E0;}#el_YH2BOWFIj6i{fill: #2D2A44;}#el_zlPoB_gL3xk{fill: #F6FEFF;}#el_BFTkQyiJl79{fill: #2D2A44;}#el_nT5FQlCZvIT{opacity: 0.4;fill: #FAFCFB;}#el_4_7qc8xg6NC{opacity: 0.4;fill: #FAFCFB;}#el_fzxjRBmtSd8{opacity: 0.4;fill: #FAFCFB;}#el_pAncbrQnSCS{opacity: 0.4;fill: #FAFCFB;}#el_OOAW6OIv4Dt{opacity: 0.4;fill: #FAFCFB;}#el_piTonqii-OA{opacity: 0.3;fill: #B9B8B3;}#el_Q4lywD9_2S4{opacity: 0.3;fill: #B9B8B3;}#el_jN6RcO3uRz4{fill: #2D2A44;}#el_76K9p1_981f{fill: #F6FEFF;}#el_0KB4gvNYPfH{fill: #2D2A44;}#el_qUISZ_NT4Z7{fill: #F6FEFF;}#el_JKl6xq4Xb7q{opacity: 0.3;fill: #B9B8B3;}#el_sQAfm4ovvhP{opacity: 0.3;fill: #B9B8B3;}#el_8sGRTMmJocc{fill: #F6FEFF;}#el_tDV5mXWHOZT{fill: #2D2A44;}#el_HpPdTHxQxUD{opacity: 0.3;fill: #B9B8B3;}#el_p2OSPoDVel3{fill: #FAFCFB;}#el_3nwFoXzb4zE{fill: #FAFCFB;}#el_jqZ72Wr9AMA{fill: #FAFCFB;}#el_-BnKzT24wSF{fill: #FAFCFB;}#el_cOMCt9OZRl4{fill: #FAFCFB;}#el_rILKL5nw2T2{fill: #FAFCFB;}#el_JylkpiaNSx4{fill: #FAFCFB;}#el_prD5mDdgv19{fill: #2D2A44;}#el_5dR2LR7_5la{fill: #2D2A44;}#el_dhaHFSvkRuq{fill: #2D2A44;}#el_pcuquEtbjpL{fill: #2D2A44;}#el_oPwEpJVDIW2{fill: #2D2A44;}#el_ZQu3tQhLL3S{fill: #2D2A44;}#el_wzjGW716LI3{fill: #2D2A44;}#el_5esDlu3XS-3{fill: #2D2A44;}#el_dY0ShUULgs7{fill: #2D2A44;}#el_koM6OYby_RJ{fill: #2D2A44;}#el_47ShxcwhZON{fill: #2D2A44;}#el_OE6XRoc4p9t{fill: #2D2A44;}#el_t6hGuChv5sQ{fill: #2D2A44;}#el_Y6muqlE7Z8B{fill: #2D2A44;}#el_dm1zxx2rlXw{fill: #2D2A44;}#el_PZUmSB6wCQt{fill: #2D2A44;}#el_bm5q4nWnYd7{fill: #2D2A44;}#el_w2izjGAUFM6{fill: #2D2A44;}#el_l16njKTdBhb{fill: #2D2A44;}#el_UZ_InwTaqUM{fill: #2D2A44;}#el_O_Hd6bEXU6i{fill: #2D2A44;}#el_ZaxLWnspXPS{fill: #722127;}#el_HT0popMpwzN{fill: #B8E3F6;}#el_vk8MxO1XWLI{fill: #B8E3F6;}#el_lcDtJBCswIi{fill: #E3424E;}#el_4UhWaLaCrJb{fill: #E3424E;}#el_YD_VtxLi7Kh{fill: #E96871;}#el_0KNarO--WoL{opacity: 0.4;fill: #722127;}#el_9lHVblp_6H_{opacity: 0.4;fill: #722127;}#el_taYVRsbXhCF{fill: #EEE8E0;}#el_MBJa709k0kH{fill: #2D2A44;}#el_AIVPIu1ywoz{fill: #F6FEFF;}#el_dRB5_e9xus4{opacity: 0.3;fill: #B9B8B3;}#el_IFJ6xOy2ft7{fill: #EEE8E0;}#el_IfSNXdQD1Yb{fill: #2D2A44;}#el_hnRA7qHgn_m{fill: #F6FEFF;}#el_DN1-cYhimtD{opacity: 0.3;fill: #B9B8B3;}#el_AtZbBMvuX2C{fill: #FAFCFB;}#el_fCpHGp1e3AZ{fill: #FAFCFB;}#el_2rfSsdYcN5P{fill: #FAFCFB;}#el_hQk1OozOCeD_an_Cj5rxN7EK{-webkit-animation-fill-mode: backwards;animation-fill-mode: backwards;-webkit-transform: translate(203.5px, 133px) translate(-203.5px, -133px) translate(0px, 0px);transform: translate(203.5px, 133px) translate(-203.5px, -133px) translate(0px, 0px);-webkit-animation-name: kf_el_hQk1OozOCeD_an_Cj5rxN7EK;animation-name: kf_el_hQk1OozOCeD_an_Cj5rxN7EK;-webkit-animation-timing-function: cubic-bezier(0, 0, 1, 1);animation-timing-function: cubic-bezier(0, 0, 1, 1);}#el_r2prFcqJFe0_an_6vKH00H2f{-webkit-animation-fill-mode: backwards;animation-fill-mode: backwards;-webkit-transform: translate(248px, 12px) scale(0.1, 0.1) translate(-248px, -12px);transform: translate(248px, 12px) scale(0.1, 0.1) translate(-248px, -12px);-webkit-animation-name: kf_el_r2prFcqJFe0_an_6vKH00H2f;animation-name: kf_el_r2prFcqJFe0_an_6vKH00H2f;-webkit-animation-timing-function: cubic-bezier(0, 0, 1, 1);animation-timing-function: cubic-bezier(0, 0, 1, 1);}#el_Ln3s1ZS2QKo_an_fgRvb9sfL{-webkit-transform: translate(293px, 7px) translate(-293px, -7px) translate(0px, 0px);transform: translate(293px, 7px) translate(-293px, -7px) translate(0px, 0px);}#el_Ln3s1ZS2QKo_an_stvaa3LZJ{-webkit-animation-fill-mode: backwards;animation-fill-mode: backwards;-webkit-transform: translate(298px, 12px) scale(0.1, 0.1) translate(-298px, -12px);transform: translate(298px, 12px) scale(0.1, 0.1) translate(-298px, -12px);-webkit-animation-name: kf_el_Ln3s1ZS2QKo_an_stvaa3LZJ;animation-name: kf_el_Ln3s1ZS2QKo_an_stvaa3LZJ;-webkit-animation-timing-function: cubic-bezier(0, 0, 1, 1);animation-timing-function: cubic-bezier(0, 0, 1, 1);}#el_XNGLtd0x4bx_an_zBuOnHqrs{-webkit-animation-fill-mode: backwards;animation-fill-mode: backwards;-webkit-transform: translate(198px, 12px) scale(2, 2) translate(-198px, -12px);transform: translate(198px, 12px) scale(2, 2) translate(-198px, -12px);-webkit-animation-name: kf_el_XNGLtd0x4bx_an_zBuOnHqrs;animation-name: kf_el_XNGLtd0x4bx_an_zBuOnHqrs;-webkit-animation-timing-function: cubic-bezier(0, 0, 1, 1);animation-timing-function: cubic-bezier(0, 0, 1, 1);}</style>

<g id="el_NiKTy8Q3wp">
	<path d="M375,367.3c0,5.8-55.3,10.4-123.5,10.4c-68.2,0-123.5-4.7-123.5-10.4c0-5.8,55.3-10.4,123.5-10.4&#10;&#9;&#9;C319.7,356.9,375,361.6,375,367.3z" id="el_wmuGUo3he_"/>
	<g id="el_1CsPCArxq_">
		<path d="M181.4,322.1c0,14.2,11.5,25.7,25.7,25.7c14.2,0,25.7-11.5,25.7-25.7c0-14.2-11.5-25.7-25.7-25.7&#10;&#9;&#9;&#9;C192.9,296.3,181.4,307.9,181.4,322.1z" id="el_64qxPg5aNZ"/>
		<path d="M187.2,305.9c0,0-36.3,26-21.2,50.4c15.1,24.4,29.2,12.5,29.2,12.5l33.1-29.7&#10;&#9;&#9;&#9;C228.2,339.1,209.3,321.9,187.2,305.9z" id="el_7PLAt32SxF"/>
		<g id="el_-lh7PBm5WA">
			<path d="M163.2,342.4c0,0,4.3,17.5,10,17.6c5.7,0.1,58.1-25.4,54.6-29.5c-3.5-4.1-3.2-5.3-3.2-5.3L163.2,342.4z" id="el_OvuMSRwGCO"/>
			<path d="M186.4,348.9c-3.5,5.5-25.7,6.7-14.5,18.7c7.7,8.2,43.7,21,67.9,18.2c0,0-9.6-22,13.4-29&#10;&#9;&#9;&#9;&#9;c0,0-21.1-30.3-40.8-29.3C192.8,328.5,190.7,342.2,186.4,348.9z" id="el_Lycxvm8q4N"/>
			<path d="M196.6,344.4c0,0,21.9-14.8,41.4,9.4C237.9,353.9,221.4,319.9,196.6,344.4z" id="el_Sdp_9aOHr6"/>
			<path d="M234,378.9c0,0-35.5-4.5-49.5-20c0,0-9.3-0.2-8.6,2.3C176.7,363.8,215.9,388.1,234,378.9z" id="el_Np-QksfqRw"/>
		</g>
	</g>
	<path d="M232.4,361.2c0,0,41.3-11.2,47.2-1.9c5.9,9.3-23.2,22-42.5,33.6C217.8,404.4,210.3,365.8,232.4,361.2z" id="el_w2arq-b1-_"/>
	<path d="M334.3,237.6c0,11.8-9.5,21.3-21.3,21.3c-11.8,0-21.3-9.5-21.3-21.3c0-11.8,9.5-21.3,21.3-21.3&#10;&#9;&#9;C324.7,216.3,334.3,225.9,334.3,237.6z" id="el_p0h52UKt_w"/>
	<path d="M206.6,237.6c0,11.8-9.5,21.3-21.3,21.3c-11.8,0-21.3-9.5-21.3-21.3c0-11.8,9.5-21.3,21.3-21.3&#10;&#9;&#9;C197.1,216.3,206.6,225.9,206.6,237.6z" id="el_KwBXFEBXZU"/>
	<g id="el_i0Gys30YLS">
		<path d="M367.7,131.8c0,19.4-15.8,35.2-35.2,35.2c-19.4,0-35.2-15.8-35.2-35.2s15.8-35.2,35.2-35.2&#10;&#9;&#9;&#9;C351.9,96.6,367.7,112.4,367.7,131.8z" id="el_aZisVFy3_b"/>
		<path d="M191.4,131.8c0,19.4-15.8,35.2-35.2,35.2S121,151.3,121,131.8s15.8-35.2,35.2-35.2S191.4,112.4,191.4,131.8z" id="el_hiNcWZ4NlzD"/>
		<path d="M131,130.2c0-15.2,9.9-28.4,23.5-33.5c-18.7,0.9-33.5,16.2-33.5,35.1c0,19.4,15.8,35.2,35.2,35.2&#10;&#9;&#9;&#9;c3,0,5.9-0.4,8.7-1.1C146.2,164.9,131,149.1,131,130.2z" id="el_YbccCH2OG-4"/>
		<path d="M358.1,130.2c0-15.2-9.9-28.4-23.5-33.5c18.7,0.9,33.5,16.2,33.5,35.1c0,19.4-15.8,35.2-35.2,35.2&#10;&#9;&#9;&#9;c-3,0-5.9-0.4-8.7-1.1C342.8,164.9,358.1,149.1,358.1,130.2z" id="el_RMcrTpdc5o0"/>
		<path d="M328.6,86.5c0,23.3-37.8,38.9-84.3,38.9c-46.6,0-84.3-15.2-84.3-38.5c0-23.3,37.8-45.9,84.3-45.9&#10;&#9;&#9;&#9;C290.9,41,328.6,63.2,328.6,86.5z" id="el_khKy03qfKVN"/>
		<path d="M238.1,43.2c28.4-1.9,56.5,7,80.1,22.8c0.1,0,0.2,0.1,0.2,0.1c0.4,0.2,0.7,0.4,1.1,0.6&#10;&#9;&#9;&#9;C305.5,52,277.1,41,244.3,41c-42.7,0-77.9,19-83.5,40.1C179.3,58.5,206.6,45.2,238.1,43.2z" id="el_bHPsYnrvb9R"/>
		<path d="M297.9,181.1c0,21.9-23.9,39.7-53.4,39.7c-29.5,0-53.4-17.8-53.4-39.7c0-21.9,23.9-39.7,53.4-39.7&#10;&#9;&#9;&#9;C274,141.4,297.9,159.2,297.9,181.1z" id="el_YH2BOWFIj6i"/>
		<path d="M244.5,49.8c-72.9,0-102.9,55.8-102.9,79.2c0,62.8,72.3,66.7,102.9,66.7c30.7,0,102.9-6.9,102.9-66.7&#10;&#9;&#9;&#9;C347.4,105.6,317.4,49.8,244.5,49.8z" id="el_zlPoB_gL3xk"/>
		<path d="M175.2,165.5c0,0-8-39.5-4.7-70.1c0,0,77.9-30.6,151,2.6c0,0,4.2,48-7.7,68&#10;&#9;&#9;&#9;C313.8,166,238.4,188.2,175.2,165.5z" id="el_BFTkQyiJl79"/>
		<path d="M181.9,102.5c0,0,64.9-27.5,129.8,0.3l-1.4,3.4H183L181.9,102.5z" id="el_nT5FQlCZvIT"/>
		<path d="M181.9,154c0,0,64.9,27.5,129.8-0.3l-1.4-3.4H183L181.9,154z" id="el_4_7qc8xg6NC"/>
		<path d="M191.1,136.8l33.7-21.1C224.7,115.7,214.6,131.2,191.1,136.8z" id="el_fzxjRBmtSd8"/>
		<path d="M225.9,136.8l33.7-21.1C259.6,115.7,249.4,131.2,225.9,136.8z" id="el_pAncbrQnSCS"/>
		<path d="M260.7,136.8l33.7-21.1C294.4,115.7,284.2,131.2,260.7,136.8z" id="el_OOAW6OIv4Dt"/>
		<path d="M183.4,78.7c0,0,50.8-31.9,114.6-6.6C297.9,72.1,235.2,32.5,183.4,78.7z" id="el_piTonqii-OA"/>
		<path d="M183.4,176.8c0,0,64.6,20.7,128.4-4.6C311.7,172.2,240.7,211.6,183.4,176.8z" id="el_Q4lywD9_2S4"/>
	</g>
	<g id="el_iakoU_mh93r">
		<path d="M317.9,322.1c0,14.2-11.5,25.7-25.7,25.7c-14.2,0-25.7-11.5-25.7-25.7c0-14.2,11.5-25.7,25.7-25.7&#10;&#9;&#9;&#9;C306.4,296.3,317.9,307.9,317.9,322.1z" id="el_jN6RcO3uRz4"/>
		<path d="M312.2,305.9c0,0,36.3,26,21.2,50.4c-15.1,24.4-29.2,12.5-29.2,12.5l-33.1-29.7&#10;&#9;&#9;&#9;C271.1,339.1,290,321.9,312.2,305.9z" id="el_76K9p1_981f"/>
		<g id="el_6E7YTEvKXIj">
			<path d="M336.2,340c0,0-4.3,17.5-10,17.6c-5.7,0.1-58.1-25.4-54.6-29.5c3.5-4.1,3.2-5.3,3.2-5.3L336.2,340z" id="el_0KB4gvNYPfH"/>
			<path d="M312.9,346.6c3.5,5.5,25.7,6.7,14.5,18.7c-7.7,8.2-43.7,21-67.9,18.2c0,0,9.6-22-13.4-29&#10;&#9;&#9;&#9;&#9;c0,0,21.1-30.3,40.8-29.3C306.6,326.1,308.7,339.9,312.9,346.6z" id="el_qUISZ_NT4Z7"/>
			<path d="M302.8,342.1c0,0-21.9-14.8-41.4,9.4C261.4,351.5,277.9,317.6,302.8,342.1z" id="el_JKl6xq4Xb7q"/>
			<path d="M265.3,376.6c0,0,35.5-4.5,49.5-20c0,0,9.3-0.2,8.6,2.3C322.7,361.5,283.5,385.7,265.3,376.6z" id="el_sQAfm4ovvhP"/>
		</g>
	</g>
	<g id="el_dhT-7D7fOCU">
		<path d="M249.2,203.9c-16.4,0-38.3-6.5-56.9,12.9v85.8c0,0,35.3,19.4,35.3,38.9c0,0,3.5,8.9,22.1,8.9&#10;&#9;&#9;&#9;c13.8,0,21.5-8.9,21.5-8.9c0-19.4,34.9-38.9,34.9-38.9v-85.8C287.5,197.3,263.7,203.9,249.2,203.9z" id="el_8sGRTMmJocc"/>
		<rect x="213.2" y="224.6" width="69.6" height="76.6" id="el_tDV5mXWHOZT"/>
		<path d="M228.9,330.4c0,0,19.1,18.9,42.3-0.6C271.2,329.8,249.7,358.4,228.9,330.4z" id="el_HpPdTHxQxUD"/>
		<path d="M233,235.2c0,2.8-2.3,5.1-5.1,5.1c-2.8,0-5.1-2.3-5.1-5.1s2.3-5.1,5.1-5.1C230.7,230.1,233,232.4,233,235.2z" id="el_p2OSPoDVel3"/>
		<path d="M253.9,235.2c0,2.8-2.3,5.1-5.1,5.1c-2.8,0-5.1-2.3-5.1-5.1s2.3-5.1,5.1-5.1&#10;&#9;&#9;&#9;C251.6,230.1,253.9,232.4,253.9,235.2z" id="el_3nwFoXzb4zE"/>
		<path d="M274.8,235.2c0,2.8-2.3,5.1-5.1,5.1s-5.1-2.3-5.1-5.1s2.3-5.1,5.1-5.1S274.8,232.4,274.8,235.2z" id="el_jqZ72Wr9AMA"/>
		<path d="M233,288.5c0,2.8-2.3,5.1-5.1,5.1c-2.8,0-5.1-2.3-5.1-5.1s2.3-5.1,5.1-5.1C230.7,283.5,233,285.7,233,288.5z" id="el_-BnKzT24wSF"/>
		<path d="M253.9,288.5c0,2.8-2.3,5.1-5.1,5.1c-2.8,0-5.1-2.3-5.1-5.1s2.3-5.1,5.1-5.1&#10;&#9;&#9;&#9;C251.6,283.5,253.9,285.7,253.9,288.5z" id="el_cOMCt9OZRl4"/>
		<path d="M274.8,288.5c0,2.8-2.3,5.1-5.1,5.1s-5.1-2.3-5.1-5.1s2.3-5.1,5.1-5.1S274.8,285.7,274.8,288.5z" id="el_rILKL5nw2T2"/>
		<rect x="224.8" y="245.5" width="48.7" height="30.2" id="el_JylkpiaNSx4"/>
		<g id="el_a3AMR1nxIRe">
			<path d="M217.7,219.2c0,0.8-0.7,1.5-1.5,1.5c-0.8,0-1.5-0.7-1.5-1.5c0-0.8,0.7-1.5,1.5-1.5&#10;&#9;&#9;&#9;&#9;C217,217.7,217.7,218.4,217.7,219.2z" id="el_prD5mDdgv19"/>
			<path d="M224.7,219.2c0,0.8-0.7,1.5-1.5,1.5c-0.8,0-1.5-0.7-1.5-1.5c0-0.8,0.7-1.5,1.5-1.5&#10;&#9;&#9;&#9;&#9;C224,217.7,224.7,218.4,224.7,219.2z" id="el_5dR2LR7_5la"/>
			<path d="M231.6,219.2c0,0.8-0.7,1.5-1.5,1.5c-0.8,0-1.5-0.7-1.5-1.5c0-0.8,0.7-1.5,1.5-1.5&#10;&#9;&#9;&#9;&#9;C231,217.7,231.6,218.4,231.6,219.2z" id="el_dhaHFSvkRuq"/>
			<path d="M238.6,219.2c0,0.8-0.7,1.5-1.5,1.5c-0.8,0-1.5-0.7-1.5-1.5c0-0.8,0.7-1.5,1.5-1.5&#10;&#9;&#9;&#9;&#9;C237.9,217.7,238.6,218.4,238.6,219.2z" id="el_pcuquEtbjpL"/>
			<path d="M245.6,219.2c0,0.8-0.7,1.5-1.5,1.5c-0.8,0-1.5-0.7-1.5-1.5c0-0.8,0.7-1.5,1.5-1.5&#10;&#9;&#9;&#9;&#9;C244.9,217.7,245.6,218.4,245.6,219.2z" id="el_oPwEpJVDIW2"/>
			<path d="M252.5,219.2c0,0.8-0.7,1.5-1.5,1.5c-0.8,0-1.5-0.7-1.5-1.5c0-0.8,0.7-1.5,1.5-1.5&#10;&#9;&#9;&#9;&#9;C251.8,217.7,252.5,218.4,252.5,219.2z" id="el_ZQu3tQhLL3S"/>
			<path d="M259.5,219.2c0,0.8-0.7,1.5-1.5,1.5c-0.8,0-1.5-0.7-1.5-1.5c0-0.8,0.7-1.5,1.5-1.5&#10;&#9;&#9;&#9;&#9;C258.8,217.7,259.5,218.4,259.5,219.2z" id="el_wzjGW716LI3"/>
			<path d="M266.5,219.2c0,0.8-0.7,1.5-1.5,1.5c-0.8,0-1.5-0.7-1.5-1.5c0-0.8,0.7-1.5,1.5-1.5&#10;&#9;&#9;&#9;&#9;C265.8,217.7,266.5,218.4,266.5,219.2z" id="el_5esDlu3XS-3"/>
			<path d="M273.4,219.2c0,0.8-0.7,1.5-1.5,1.5c-0.8,0-1.5-0.7-1.5-1.5c0-0.8,0.7-1.5,1.5-1.5&#10;&#9;&#9;&#9;&#9;C272.7,217.7,273.4,218.4,273.4,219.2z" id="el_dY0ShUULgs7"/>
			<path d="M280.4,219.2c0,0.8-0.7,1.5-1.5,1.5c-0.8,0-1.5-0.7-1.5-1.5c0-0.8,0.7-1.5,1.5-1.5&#10;&#9;&#9;&#9;&#9;C279.7,217.7,280.4,218.4,280.4,219.2z" id="el_koM6OYby_RJ"/>
		</g>
		<g id="el_ZBqDt0-QJMl">
			<path d="M217.7,307.4c0,0.8-0.7,1.5-1.5,1.5c-0.8,0-1.5-0.7-1.5-1.5s0.7-1.5,1.5-1.5&#10;&#9;&#9;&#9;&#9;C217,305.9,217.7,306.6,217.7,307.4z" id="el_47ShxcwhZON"/>
			<path d="M224.7,307.4c0,0.8-0.7,1.5-1.5,1.5c-0.8,0-1.5-0.7-1.5-1.5s0.7-1.5,1.5-1.5&#10;&#9;&#9;&#9;&#9;C224,305.9,224.7,306.6,224.7,307.4z" id="el_OE6XRoc4p9t"/>
			<path d="M231.6,307.4c0,0.8-0.7,1.5-1.5,1.5c-0.8,0-1.5-0.7-1.5-1.5s0.7-1.5,1.5-1.5&#10;&#9;&#9;&#9;&#9;C231,305.9,231.6,306.6,231.6,307.4z" id="el_t6hGuChv5sQ"/>
			<path d="M238.6,307.4c0,0.8-0.7,1.5-1.5,1.5c-0.8,0-1.5-0.7-1.5-1.5s0.7-1.5,1.5-1.5&#10;&#9;&#9;&#9;&#9;C237.9,305.9,238.6,306.6,238.6,307.4z" id="el_Y6muqlE7Z8B"/>
			<path d="M245.6,307.4c0,0.8-0.7,1.5-1.5,1.5c-0.8,0-1.5-0.7-1.5-1.5s0.7-1.5,1.5-1.5&#10;&#9;&#9;&#9;&#9;C244.9,305.9,245.6,306.6,245.6,307.4z" id="el_dm1zxx2rlXw"/>
			<path d="M252.5,307.4c0,0.8-0.7,1.5-1.5,1.5c-0.8,0-1.5-0.7-1.5-1.5s0.7-1.5,1.5-1.5&#10;&#9;&#9;&#9;&#9;C251.8,305.9,252.5,306.6,252.5,307.4z" id="el_PZUmSB6wCQt"/>
			<path d="M259.5,307.4c0,0.8-0.7,1.5-1.5,1.5c-0.8,0-1.5-0.7-1.5-1.5s0.7-1.5,1.5-1.5&#10;&#9;&#9;&#9;&#9;C258.8,305.9,259.5,306.6,259.5,307.4z" id="el_bm5q4nWnYd7"/>
			<path d="M266.5,307.4c0,0.8-0.7,1.5-1.5,1.5c-0.8,0-1.5-0.7-1.5-1.5s0.7-1.5,1.5-1.5&#10;&#9;&#9;&#9;&#9;C265.8,305.9,266.5,306.6,266.5,307.4z" id="el_w2izjGAUFM6"/>
			<path d="M273.4,307.4c0,0.8-0.7,1.5-1.5,1.5c-0.8,0-1.5-0.7-1.5-1.5s0.7-1.5,1.5-1.5&#10;&#9;&#9;&#9;&#9;C272.7,305.9,273.4,306.6,273.4,307.4z" id="el_l16njKTdBhb"/>
			<path d="M280.4,307.4c0,0.8-0.7,1.5-1.5,1.5c-0.8,0-1.5-0.7-1.5-1.5s0.7-1.5,1.5-1.5&#10;&#9;&#9;&#9;&#9;C279.7,305.9,280.4,306.6,280.4,307.4z" id="el_UZ_InwTaqUM"/>
		</g>
	</g>
	<path d="M246.1,352.1c0,0-40.7,13.3-40.6,24.2c0.2,11,31.5,5.7,54,4.8C282,380.3,267.1,343.8,246.1,352.1z" id="el_O_Hd6bEXU6i"/>
	<g id="el_OqIOXXO69zC">
		<polygon points="268.9,301.2 268.9,340.3 267.6,338.5 266.6,340.3 266.6,301.2 &#9;&#9;" id="el_ZaxLWnspXPS"/>
		<path d="M252.6,255c0,0-10.7-27.9-44-31.6l-4.9,12.1L252.6,255z" id="el_HT0popMpwzN"/>
		<path d="M252.6,255c0,0,10.7-27.9,44-31.6l4.9,12.1L252.6,255z" id="el_vk8MxO1XWLI"/>
		<path d="M199.3,229.6c0,0,18.6-0.5,46.4,22.4v72.4c0,0-37.1-10.4-46.4-12.9V229.6z" id="el_lcDtJBCswIi"/>
		<path d="M306,229.6c0,0-18.6-0.5-46.4,22.4v72.4c0,0,37.1-10.4,46.4-12.9V229.6z" id="el_4UhWaLaCrJb"/>
		<rect x="245.7" y="250.1" width="13.9" height="76.6" id="el_YD_VtxLi7Kh"/>
		<polygon points="268.9,268.9 296.7,262.3 296.7,257.1 268.9,265.5 &#9;&#9;" id="el_0KNarO--WoL"/>
		<polygon points="268.9,285.2 296.7,278.6 296.7,273.3 268.9,281.7 &#9;&#9;" id="el_9lHVblp_6H_"/>
	</g>
	<path d="M368.4,249.7c0,0-23.3-21.3-37.9-24.1c0,0-4.6,23.7-9,31.5c0,0,35.3-12.7,46.1-7" id="el_taYVRsbXhCF"/>
	<g id="el_FqkXjJt13CU">
		<path d="M283.5,281.9c0,0-10.5,2.3-9.3,7.9c1.2,5.6,2,11.3,16.8,5.2L283.5,281.9z" id="el_MBJa709k0kH"/>
		<path d="M368.4,249.7c13.3,17.6-24.7,46.6-79.7,49.2c0,0-19.7-16.6,3.2-27C314.8,261.6,355.5,232.6,368.4,249.7z" id="el_AIVPIu1ywoz"/>
		<path d="M302.4,294.3c18.3-1.1,55.2-16.8,59.5-28.2l0,0c0,0-53.7,23.4-68.8,26.3C293.1,292.4,296.4,294.7,302.4,294.3&#10;&#9;&#9;&#9;z" id="el_dRB5_e9xus4"/>
	</g>
	<path d="M136.9,249.7c0,0,17.4-22.7,31.9-25.5c0,0,10.6,25,14.9,32.8c0,0-35.3-12.7-46.1-7" id="el_IFJ6xOy2ft7"/>
	<g id="el_6Al7oU5AiAm">
		<path d="M221.8,281.9c0,0,10.5,2.3,9.3,7.9c-1.2,5.6-2,11.3-16.8,5.2L221.8,281.9z" id="el_IfSNXdQD1Yb"/>
		<path d="M136.9,249.7c-13.3,17.6,24.7,46.6,79.7,49.2c0,0,19.7-16.6-3.2-27C190.5,261.6,149.8,232.6,136.9,249.7z" id="el_hnRA7qHgn_m"/>
		<path d="M202.9,294.3c-18.3-1.1-55.2-16.8-59.5-28.2l0,0c0,0,53.7,23.4,68.8,26.3&#10;&#9;&#9;&#9;C212.2,292.4,208.9,294.7,202.9,294.3z" id="el_DN1-cYhimtD"/>
	</g>
</g>
<g id="el_hQk1OozOCeD_an_Cj5rxN7EK" data-animator-group="true" data-animator-type="0"><g id="el_hQk1OozOCeD">
	<path d="M203.5,137.6c0-2.7,1.8-4.6,4.4-4.6c2.6,0,4.3,1.9,4.3,4.6c0,2.6-1.7,4.6-4.4,4.6&#10;&#9;&#9;C205.3,142.2,203.5,140.2,203.5,137.6z" id="el_AtZbBMvuX2C"/>
	<path d="M280.9,137.6c0-2.7,1.8-4.6,4.4-4.6s4.3,1.9,4.3,4.6c0,2.6-1.7,4.6-4.4,4.6&#10;&#9;&#9;C282.7,142.2,280.9,140.2,280.9,137.6z" id="el_fCpHGp1e3AZ"/>
</g></g>
<g id="el_2X5feQvKpft">
	<path d="M265.3,143.5v3.7h-36.7v-3.7H265.3z" id="el_2rfSsdYcN5P"/>
</g>
<g id="el_XNGLtd0x4bx_an_zBuOnHqrs" data-animator-group="true" data-animator-type="2"><circle cx="198" cy="12" r="5" id="el_XNGLtd0x4bx"/></g>
<g id="el_Ln3s1ZS2QKo_an_stvaa3LZJ" data-animator-group="true" data-animator-type="2"><circle cx="298" cy="12" r="5" id="el_Ln3s1ZS2QKo"/></g>
<g id="el_r2prFcqJFe0_an_6vKH00H2f" data-animator-group="true" data-animator-type="2"><circle cx="248" cy="12" r="5" id="el_r2prFcqJFe0"/></g>
</svg>